<?xml version="1.0" standalone="no"?>
<!DOCTYPE svg PUBLIC "-//W3C//DTD SVG 20010904//EN"
 "http://www.w3.org/TR/2001/REC-SVG-20010904/DTD/svg10.dtd">
<svg version="1.0" xmlns="http://www.w3.org/2000/svg"
 width="1181.000000pt" height="1181.000000pt" viewBox="0 0 1181.000000 1181.000000"
 preserveAspectRatio="xMidYMid meet">
<metadata>
Created by potrace 1.14, written by Peter Selinger 2001-2017
</metadata>
<g transform="translate(0.000000,1181.000000) scale(0.100000,-0.100000)"
fill="#000000" stroke="none">
<path d="M5635 11169 c-69 -17 -237 -80 -315 -119 -156 -80 -297 -190 -438
-344 -60 -65 -62 -69 -46 -87 9 -10 26 -21 38 -25 111 -34 532 -235 513 -245
-57 -33 -249 -89 -334 -99 -193 -22 -381 -74 -458 -127 -28 -19 -21 -17 104
27 62 22 122 40 133 40 32 0 193 -59 348 -128 80 -35 183 -77 230 -92 l85 -28
72 -109 c40 -59 97 -135 126 -168 50 -56 53 -62 45 -95 -11 -49 -1 -114 23
-144 27 -35 48 -33 56 4 l6 30 38 -35 c44 -39 51 -41 69 -20 16 19 -1 69 -36
106 -22 23 -23 27 -9 39 19 16 19 54 -1 74 -17 18 -85 21 -114 6 -15 -8 -26
-2 -60 38 -49 55 -183 252 -176 259 2 2 57 -3 122 -12 114 -16 119 -17 163
-57 25 -22 69 -51 96 -64 57 -26 165 -37 172 -17 7 21 -109 132 -145 139 -32
7 -41 18 -22 29 14 9 13 68 -2 83 -30 30 -96 4 -82 -32 9 -23 23 -20 17 4 -4
16 0 20 20 20 40 0 53 -32 25 -65 -31 -36 -102 -42 -248 -21 -148 22 -282 63
-450 139 -74 33 -175 75 -224 92 -49 18 -84 35 -79 38 14 9 332 35 553 46 176
8 202 7 265 -9 96 -26 168 -25 222 1 l44 21 82 -36 c102 -46 181 -99 220 -148
28 -35 29 -40 17 -63 -12 -22 -12 -28 2 -41 21 -21 38 -10 38 25 0 39 -53 114
-108 155 -47 34 -167 98 -209 110 -21 7 -33 26 -15 26 20 -1 146 -33 217 -57
79 -26 113 -42 148 -71 16 -14 16 -16 0 -34 -15 -17 -15 -20 -1 -35 37 -36 65
18 33 64 -33 48 -187 112 -322 135 -40 6 -73 15 -73 19 0 14 148 50 305 74 73
11 95 11 120 1 54 -23 119 -92 169 -177 26 -46 70 -120 96 -165 l49 -80 -6
-97 c-6 -100 4 -150 34 -161 17 -7 53 10 53 25 0 6 14 0 31 -12 24 -17 36 -20
48 -12 16 11 21 64 8 93 -5 10 0 18 15 25 13 6 24 19 26 31 5 36 -32 67 -119
99 l-83 30 -41 70 c-23 39 -62 106 -86 150 -26 47 -68 104 -103 138 l-58 57
55 0 c31 0 88 -7 128 -15 65 -14 79 -21 143 -78 39 -35 95 -80 124 -101 29
-21 66 -51 82 -67 15 -16 37 -29 48 -29 10 0 65 -24 123 -54 150 -79 339 -157
368 -154 24 3 26 7 24 48 l-2 45 27 -30 c31 -34 135 -197 207 -325 26 -47 70
-116 98 -155 l50 -69 0 -214 0 -213 -30 -32 c-42 -44 -53 -69 -53 -116 0 -46
19 -54 52 -24 17 15 18 15 18 -10 0 -64 37 -104 68 -73 12 12 16 32 15 76 -1
50 2 60 16 60 25 0 41 20 41 50 0 31 -21 53 -71 74 -35 15 -36 17 -43 83 -7
72 3 303 13 303 4 0 45 -39 93 -87 78 -79 87 -93 97 -142 15 -72 56 -145 105
-187 57 -49 66 -45 66 26 0 61 -18 120 -46 151 -14 16 -14 18 6 24 11 4 28 17
36 30 21 33 1 79 -37 83 -26 3 -48 -23 -33 -37 4 -3 9 0 11 7 12 33 59 -3 48
-37 -17 -54 -109 -25 -208 64 -127 115 -240 262 -331 430 -21 39 -67 114 -103
168 -36 54 -63 100 -61 102 7 7 251 -139 403 -241 165 -111 289 -186 396 -239
79 -40 99 -66 189 -245 46 -91 54 -114 58 -177 4 -62 2 -73 -11 -73 -19 0 -36
-29 -30 -47 8 -21 31 -15 49 12 13 20 16 42 12 104 -4 64 -11 93 -42 157 -20
44 -51 101 -68 127 -17 26 -28 50 -25 53 6 7 128 -135 177 -207 35 -51 70
-120 70 -139 0 -4 -12 -11 -26 -14 -33 -9 -31 -49 3 -54 29 -4 46 36 37 84 -9
50 -98 187 -172 265 -35 38 -63 72 -60 74 16 16 372 -155 393 -190 38 -60 42
-170 15 -425 l-12 -115 -48 -51 c-59 -62 -82 -106 -78 -147 3 -29 6 -32 34
-31 28 2 34 -3 47 -37 9 -22 19 -39 24 -39 18 0 54 42 60 70 5 26 9 28 33 23
22 -4 31 0 39 15 20 37 12 65 -40 143 l-51 78 12 98 c20 170 23 287 10 342 -7
29 -11 54 -8 56 2 2 14 -4 26 -14 18 -13 29 -42 47 -117 48 -200 111 -351 179
-430 40 -46 103 -70 159 -60 26 5 40 1 67 -19 19 -14 40 -25 47 -25 15 0 17
32 4 78 -7 24 -6 40 5 60 33 64 3 150 -66 184 -20 10 -57 18 -86 18 l-51 0
-75 98 c-41 53 -97 122 -125 152 -31 34 -53 68 -57 90 -4 19 -21 90 -38 158
-16 68 -28 125 -26 127 14 14 50 -16 93 -78 61 -91 245 -320 365 -457 146
-165 178 -219 246 -405 37 -102 45 -80 13 35 -26 94 -67 181 -116 245 -50 67
-184 225 -254 302 -62 67 -152 182 -217 280 -39 57 -40 61 -17 55 39 -11 225
-190 225 -217 0 -17 9 -27 38 -38 61 -25 287 -267 448 -482 111 -148 234 -346
234 -378 0 -13 -27 -65 -61 -116 -87 -132 -101 -168 -108 -284 l-6 -99 -33 40
c-17 23 -64 105 -103 183 -84 169 -148 266 -220 334 l-52 50 65 -85 c100 -131
102 -136 100 -270 -2 -63 -7 -153 -13 -200 -6 -47 -14 -153 -18 -236 l-6 -150
-65 -80 c-76 -91 -119 -152 -148 -210 -19 -38 -25 -42 -69 -48 -55 -7 -105
-34 -128 -70 -21 -32 -11 -49 26 -44 16 3 29 3 29 2 0 -2 -10 -23 -21 -48 -24
-48 -20 -76 10 -76 22 0 77 50 86 79 5 16 12 19 40 14 66 -11 85 43 43 118
l-21 38 35 58 c20 32 69 100 109 150 84 106 78 109 104 -50 18 -107 18 -108
-3 -155 -44 -97 -49 -158 -21 -249 13 -41 22 -41 53 0 35 45 56 99 56 142 0
34 1 35 39 35 21 0 44 6 50 14 18 22 10 80 -12 84 -25 5 -50 -6 -42 -18 5 -8
11 -8 20 0 10 9 16 7 25 -9 8 -17 7 -24 -10 -41 -19 -19 -23 -19 -48 -6 -41
21 -68 87 -93 221 -24 133 -29 357 -10 475 6 36 13 127 17 203 4 76 11 134 15
130 16 -17 105 -227 171 -403 40 -107 79 -234 94 -302 38 -181 83 -331 105
-350 18 -16 18 -18 0 -120 -27 -147 -64 -214 -122 -220 -26 -2 -34 -8 -34 -23
0 -31 30 -29 69 5 49 43 93 139 106 230 6 41 13 90 16 108 14 90 35 -25 33
-183 0 -44 -6 -100 -12 -125 -11 -40 -15 -45 -38 -42 -15 2 -31 -4 -39 -13
-11 -13 -11 -19 3 -32 14 -15 18 -15 42 1 15 10 33 34 42 53 20 49 28 231 14
322 -6 40 -9 76 -7 79 16 16 206 -340 206 -386 0 -58 -65 -165 -168 -273 -53
-57 -106 -117 -117 -132 -17 -23 -34 -31 -95 -43 -135 -28 -196 -82 -139 -124
19 -15 20 -21 12 -46 -5 -16 -8 -35 -6 -41 7 -21 65 -15 90 9 l23 22 16 -22
c20 -29 30 -28 65 7 27 28 29 34 29 113 0 98 -3 92 148 257 65 72 103 123 127
173 l34 71 11 -29 c16 -42 40 -160 40 -199 0 -24 -9 -42 -34 -67 -58 -58 -60
-125 -6 -156 17 -9 30 -19 30 -22 -1 -3 -21 -18 -46 -34 -59 -37 -99 -96 -90
-132 6 -23 11 -26 40 -21 l33 5 12 -66 c15 -82 37 -135 53 -130 11 4 31 34 41
61 1 5 16 1 32 -7 17 -9 38 -16 48 -16 40 0 87 33 118 83 l31 50 25 -27 c34
-37 73 -32 92 10 l14 32 55 -36 c70 -44 129 -49 164 -14 35 35 30 86 -16 162
-23 39 -33 66 -27 68 7 2 25 15 41 29 58 48 34 150 -53 230 -25 23 -58 48 -75
57 -17 9 -33 24 -36 34 -4 10 -17 29 -31 42 -18 17 -23 29 -18 51 7 38 -11 59
-52 59 -30 0 -36 5 -70 66 -20 37 -34 68 -32 70 2 3 64 -15 138 -39 l134 -43
6 -59 c3 -33 13 -74 22 -92 20 -37 63 -73 88 -73 25 0 42 35 34 71 -7 33 2 36
54 18 24 -8 35 -8 46 1 25 21 17 50 -22 86 -34 32 -36 35 -20 52 21 23 22 46
1 66 -25 25 -72 19 -144 -20 l-68 -37 -108 41 c-60 22 -128 46 -152 53 -47 14
-40 -4 -87 199 -31 134 -96 360 -166 579 -27 85 -47 156 -44 159 9 10 105 -71
142 -120 61 -80 87 -126 118 -208 82 -217 147 -322 273 -441 94 -88 249 -201
271 -197 29 6 18 118 -23 252 -83 269 -208 488 -365 639 -122 118 -164 137
-324 148 -96 7 -124 12 -137 26 -10 10 -34 59 -55 108 -157 375 -411 749 -718
1062 -70 71 -98 106 -94 117 6 15 12 14 54 -8 27 -14 61 -28 76 -32 34 -8 80
-64 186 -224 97 -147 193 -246 284 -290 37 -18 70 -31 73 -28 3 3 -23 23 -58
44 -80 49 -190 161 -248 253 -25 40 -71 108 -104 152 -32 44 -56 83 -52 86 9
9 -55 93 -100 129 -22 18 -58 41 -80 50 -38 16 -209 129 -219 144 -2 4 32 19
76 33 l80 26 36 -40 c20 -22 54 -49 74 -60 41 -20 109 -25 125 -9 15 15 169
-84 242 -156 73 -73 112 -148 112 -215 0 -64 -28 -99 -79 -99 -63 0 -112 69
-127 178 -8 61 -20 67 -30 16 -11 -58 20 -141 71 -191 36 -37 49 -43 83 -43
77 0 131 75 118 163 -18 118 -121 240 -285 337 -51 30 -107 67 -124 82 -30 25
-31 27 -12 33 56 19 74 28 79 41 13 35 -25 64 -85 64 -25 0 -29 4 -29 28 0 35
-16 52 -50 52 -33 0 -63 -31 -90 -94 -19 -41 -25 -47 -43 -42 -115 33 -419 75
-452 62 -17 -6 -20 -51 -6 -88 4 -13 11 -35 15 -50 l6 -28 -84 0 -85 0 6 34
c3 20 -1 54 -11 82 -21 63 -21 64 18 64 53 0 67 31 42 92 -6 13 3 19 47 32
108 31 152 114 92 171 -23 21 -113 45 -169 45 -14 0 -16 7 -10 48 5 43 3 49
-23 73 -38 36 -83 49 -164 49 -61 0 -77 -5 -154 -44 l-85 -44 -19 43 c-35 78
-96 70 -107 -15 -4 -28 -8 -50 -10 -50 -2 0 -86 40 -186 89 -297 144 -496 229
-836 356 -41 15 -70 31 -65 35 18 16 106 30 191 30 91 0 166 -16 362 -75 158
-49 347 -45 562 10 135 34 150 41 146 67 -8 59 -369 198 -618 237 -83 14 -286
14 -368 1 -126 -21 -167 -44 -272 -152 -53 -54 -102 -98 -110 -98 -8 0 -62 14
-119 30 -57 17 -109 30 -116 30 -7 0 -15 9 -18 20 -3 11 -4 20 -2 20 1 0 27 5
56 10 74 14 139 40 139 56 0 21 -99 48 -175 48 -72 0 -114 -14 -194 -66 -27
-17 -50 -22 -107 -22 -40 -1 -75 2 -79 6 -3 3 26 51 65 106 71 99 72 100 103
91 50 -14 136 -11 173 7 61 29 53 94 -11 94 -34 0 -35 9 -9 47 27 40 29 54 12
71 -18 18 -52 15 -81 -8 -32 -25 -39 -25 -55 1 -19 30 -73 23 -90 -13 -10 -22
-10 -40 0 -95 7 -37 12 -76 10 -86 -1 -10 -37 -63 -79 -118 -73 -93 -80 -99
-108 -94 -16 3 -109 9 -205 14 -269 14 -605 -9 -949 -65 -85 -14 -168 -24
-185 -22 -29 3 -30 4 -10 15 32 18 310 104 409 125 105 24 264 28 545 14 159
-7 194 -6 249 8 60 15 166 65 157 73 -2 2 -37 -8 -78 -21 -119 -40 -226 -48
-397 -30 -234 26 -428 10 -626 -50 -49 -15 -112 -34 -140 -43 -27 -8 -88 -32
-134 -54 -46 -21 -85 -39 -88 -39 -14 0 42 61 115 126 154 136 327 236 521
301 91 31 120 36 206 37 115 1 152 -10 208 -63 45 -42 49 -80 12 -116 -37 -38
-101 -34 -193 10 -79 37 -91 33 -38 -13 63 -55 184 -75 239 -39 97 63 57 186
-78 236 -61 23 -193 28 -270 10z m980 -30 c7 -22 -19 -69 -43 -77 -13 -4 -17
54 -6 82 9 23 42 20 49 -5z m133 3 c2 -6 -12 -27 -31 -48 -31 -34 -35 -36 -57
-24 l-24 13 44 39 c42 38 60 43 68 20z m-90 -114 c3 -22 -2 -30 -23 -38 -39
-15 -45 -13 -45 18 0 56 62 73 68 20z m129 -14 c10 -28 -23 -47 -87 -52 l-62
-5 38 37 c41 40 99 51 111 20z m960 -175 c174 -23 367 -77 516 -143 57 -26 78
-51 35 -42 -13 3 -79 10 -148 16 -139 12 -215 28 -328 66 -56 19 -106 27 -183
31 -132 7 -213 -7 -348 -58 -58 -21 -106 -37 -108 -35 -5 4 52 72 82 98 70 61
296 92 482 67z m-817 -45 l25 -13 -35 -15 c-20 -8 -64 -18 -98 -22 -55 -6 -62
-5 -56 9 5 14 -1 15 -45 10 -31 -3 -51 -2 -51 4 0 11 63 40 100 46 40 6 133
-5 160 -19z m-593 -70 c42 -8 35 -18 -40 -56 -34 -17 -80 -43 -102 -58 l-40
-28 -75 21 c-69 19 -95 20 -335 16 -143 -2 -300 -4 -350 -4 -132 0 -366 16
-360 24 2 4 44 13 92 20 48 7 131 18 183 26 102 15 366 43 465 49 82 5 522 -3
562 -10z m416 -11 c16 -8 27 -16 25 -18 -7 -7 -178 30 -178 38 0 13 120 -3
153 -20z m1008 7 c41 -11 111 -31 156 -44 55 -17 128 -29 224 -36 78 -6 149
-15 158 -20 9 -5 13 -10 10 -10 -3 0 -42 -9 -85 -19 -210 -52 -362 -48 -562
13 -145 46 -184 54 -281 62 -81 7 -83 8 -56 22 45 23 193 51 281 51 51 1 108
-6 155 -19z m-1215 -20 c42 0 64 -32 104 -154 22 -65 45 -126 52 -134 12 -14
8 -14 -32 -6 -25 5 -112 9 -195 8 -141 0 -277 -20 -422 -60 -21 -6 -23 -3 -23
33 0 33 8 48 58 103 l58 64 74 -26 c41 -15 76 -25 78 -23 2 2 -23 18 -57 34
-34 17 -61 33 -61 35 0 7 118 75 165 94 89 36 109 41 145 37 19 -3 45 -5 56
-5z m174 -50 c16 -16 25 -18 45 -10 49 19 441 -100 745 -225 213 -88 760 -343
760 -354 0 -3 -23 -19 -51 -35 -29 -16 -60 -37 -70 -47 -27 -27 -24 -67 6 -81
21 -9 33 -7 76 16 29 14 53 25 53 24 1 -2 0 -34 -3 -73 l-6 -70 -60 -3 c-97
-4 -320 63 -465 141 -63 34 -136 71 -162 82 -43 18 -51 27 -87 100 -66 132
-172 240 -284 290 -31 13 -98 36 -149 51 -147 41 -341 143 -368 193 -14 26 -6
27 20 1z m-1343 -60 l153 0 0 -25 c0 -18 7 -28 25 -35 21 -8 23 -13 15 -35 -5
-14 -16 -35 -25 -48 -15 -24 -83 -67 -105 -67 -7 0 -92 38 -189 84 -97 46
-197 93 -223 104 -27 12 -48 24 -48 28 0 4 55 4 122 1 66 -4 190 -7 275 -7z
m634 -6 c52 -9 97 -19 101 -22 3 -4 -15 -31 -42 -59 l-49 -53 -21 30 c-25 35
-68 60 -103 60 -13 0 -44 -11 -69 -24 -31 -16 -49 -21 -56 -14 -7 7 -17 6 -31
-1 -25 -14 -27 -28 -5 -52 14 -16 12 -19 -20 -44 -19 -15 -66 -37 -104 -51
-59 -20 -73 -22 -100 -12 -18 7 -32 16 -32 19 0 4 16 17 35 29 49 30 85 95 85
153 l0 46 113 4 c61 1 133 4 158 5 25 1 88 -5 140 -14z m-431 -24 c0 -5 -7
-10 -15 -10 -8 0 -15 5 -15 10 0 6 7 10 15 10 8 0 15 -4 15 -10z m1285 -62
c39 -19 95 -43 125 -53 140 -45 180 -60 243 -92 83 -41 172 -128 221 -215 20
-36 36 -70 36 -75 0 -7 -16 -6 -47 3 -52 16 -153 87 -153 109 0 18 -75 90
-127 121 -38 23 -41 27 -28 41 20 20 19 29 -7 47 -31 22 -67 20 -122 -8 l-47
-24 -59 40 c-63 42 -160 142 -160 166 0 10 7 8 28 -6 15 -11 59 -35 97 -54z
m-120 7 c38 -56 102 -115 165 -154 46 -28 28 -27 -70 5 -74 24 -83 30 -105 68
-22 37 -46 136 -33 136 3 0 22 -25 43 -55z m-784 -35 c40 -40 35 -64 -23 -113
-38 -32 -62 -43 -115 -53 -38 -7 -90 -13 -117 -14 -50 0 -126 18 -126 30 0 4
19 13 43 20 70 21 114 48 149 91 59 75 138 91 189 39z m-196 -8 c-8 -8 -25 10
-19 20 4 6 9 5 15 -3 4 -7 6 -15 4 -17z m225 -111 c-6 -12 -18 -21 -27 -21
-13 0 -12 5 7 25 27 29 37 27 20 -4z m1129 14 c2 -2 1 -11 -2 -20 -5 -11 -22
-15 -67 -15 -33 0 -60 4 -60 9 0 25 108 46 129 26z m-1660 -34 c16 -10 18 -9
-79 -31 -67 -14 -70 -11 -15 15 55 26 73 29 94 16z m1418 -8 c29 -9 53 -21 53
-27 0 -6 3 -21 6 -33 9 -34 -5 -28 -69 27 -32 28 -55 50 -51 50 4 0 31 -8 61
-17z m-1336 -27 c33 -14 34 -14 9 -20 -42 -8 -240 -14 -240 -7 0 4 42 14 93
23 50 8 95 16 98 17 4 0 22 -5 40 -13z m1594 -5 c39 -18 140 -100 132 -107 -2
-2 -53 25 -113 61 -77 46 -101 65 -84 65 14 0 43 -9 65 -19z m-1205 -10 c0
-15 -29 -21 -107 -21 -84 0 -90 7 -16 20 67 11 123 12 123 1z m1142 -31 c56
-19 128 -57 128 -67 0 -9 -98 7 -128 20 -59 25 -128 93 -74 72 9 -3 42 -15 74
-25z m-25 -63 c27 -29 7 -30 -36 -1 -50 32 -59 66 -10 37 17 -10 38 -26 46
-36z m1281 -50 c-4 -50 -21 -58 -38 -17 -10 24 -10 37 -1 56 18 39 43 13 39
-39z m371 53 c39 -11 81 -47 81 -69 0 -8 -14 -29 -31 -47 l-30 -31 -92 29
c-75 24 -105 29 -164 26 -39 -2 -69 0 -67 4 9 15 99 63 149 80 57 20 105 22
154 8z m-1519 -27 c52 -5 73 -12 103 -36 26 -20 35 -32 26 -37 -7 -5 -1 -10
18 -14 29 -7 135 -86 142 -107 6 -18 -34 -2 -216 87 -143 69 -173 87 -173 105
0 16 4 20 17 14 10 -3 47 -9 83 -12z m1414 -107 c99 -30 150 -87 150 -167 0
-86 -82 -159 -163 -144 -86 16 -181 83 -181 127 0 12 -6 26 -14 32 -8 6 -17
29 -21 51 -7 40 -7 40 14 21 11 -10 39 -47 62 -82 23 -36 43 -63 45 -61 2 2 0
18 -5 35 -11 38 -11 38 58 12 82 -32 82 -18 0 25 l-74 40 65 5 c70 6 68 9 -29
34 -62 16 -121 48 -121 66 0 22 148 26 214 6z m-1111 -25 c14 -6 29 -23 35
-40 6 -17 10 -31 9 -31 -2 0 -21 18 -42 40 -41 42 -41 46 -2 31z m807 -18 c-1
-26 -75 -83 -108 -83 -23 0 -24 1 -10 22 8 12 35 33 59 45 47 24 59 27 59 16z
m664 -14 c56 -44 10 -106 -96 -129 -62 -13 -67 -8 -91 69 -26 84 -29 81 72 81
75 0 92 -3 115 -21z m-612 -97 c-15 -5 -16 -49 -2 -57 8 -5 7 -11 -1 -21 -30
-36 -37 -2 -17 88 11 52 11 53 21 24 7 -22 7 -31 -1 -34z m-1522 17 c32 -33
38 -74 11 -74 -15 0 -44 42 -56 83 -9 31 8 28 45 -9z m78 -9 c37 -22 50 -46
34 -62 -14 -14 -49 7 -67 42 -25 48 -19 51 33 20z m-942 -16 c34 -16 104 -86
104 -104 0 -21 -78 -9 -137 20 -66 33 -108 70 -80 70 9 0 47 -11 84 -25 37
-13 69 -22 72 -20 2 3 -26 18 -62 35 -37 17 -67 32 -67 35 0 11 54 4 86 -11z
m864 -122 c0 -37 -24 -60 -44 -43 -19 16 -27 66 -20 123 l7 49 28 -50 c16 -28
29 -63 29 -79z m73 29 c20 -34 23 -81 4 -81 -37 0 -81 70 -62 100 12 19 41 10
58 -19z m1536 -20 l44 -39 -33 -41 c-29 -35 -39 -41 -71 -41 -45 0 -59 19 -59
77 0 32 6 42 33 60 17 12 34 22 37 22 3 0 25 -17 49 -38z m377 16 c16 -14 24
-29 20 -35 -9 -14 -55 -16 -76 -2 -12 7 -12 12 0 34 17 32 22 32 56 3z m-700
-17 c49 -11 105 -20 125 -20 34 0 37 -3 44 -36 8 -46 3 -50 -37 -33 -52 21
-234 108 -227 108 3 1 45 -8 95 -19z m196 -140 c20 -11 47 -20 60 -20 26 0
107 27 124 40 7 6 18 -6 32 -35 12 -24 37 -62 57 -84 40 -44 40 -43 -42 -56
-39 -6 -53 -1 -148 49 -117 62 -333 196 -374 232 -17 16 19 3 114 -41 77 -36
157 -74 177 -85z m1255 104 c8 -21 -35 -64 -64 -64 -27 0 -29 7 -6 40 29 43
59 53 70 24z m-908 -24 c49 13 60 8 89 -36 42 -64 41 -137 -1 -153 -67 -25
-81 -23 -121 16 -30 30 -106 157 -106 176 0 3 22 0 50 -5 32 -6 63 -5 89 2z
m521 -65 c123 -20 200 -37 205 -45 3 -4 -29 -17 -70 -29 l-75 -23 -103 53
c-56 28 -104 53 -106 55 -9 8 59 3 149 -11z m500 6 c0 -15 -28 -33 -65 -41
-29 -7 -37 -5 -45 10 -18 34 -11 40 50 40 33 0 60 -4 60 -9z m-145 -21 c26
-29 9 -42 -38 -28 -35 11 -36 12 -20 30 21 23 36 23 58 -2z m-3654 -31 c16
-16 18 -23 8 -35 -6 -8 -17 -14 -24 -14 -13 0 -45 42 -45 60 0 18 39 11 61
-11z m-60 -30 c8 -16 8 -24 -1 -33 -9 -8 -16 -5 -31 13 -10 12 -16 27 -13 32
9 16 33 10 45 -12z m3319 -1 c44 -25 48 -33 23 -42 -11 -5 -28 5 -52 29 -41
40 -28 45 29 13z m-109 -34 c12 -14 11 -16 -5 -13 -11 2 -21 10 -24 17 -5 17
13 15 29 -4z m554 -6 c50 -25 57 -38 20 -38 -33 0 -86 22 -104 43 -12 15 -11
17 13 17 14 0 46 -10 71 -22z m-3778 -72 c4 -30 2 -46 -5 -46 -18 0 -42 56
-42 97 l0 37 21 -21 c13 -13 23 -39 26 -67z m3283 69 c7 -9 8 -15 2 -15 -5 0
-12 7 -16 15 -3 8 -4 15 -2 15 2 0 9 -7 16 -15z m-3196 -45 c20 -22 36 -49 36
-60 0 -19 -2 -20 -27 -6 -34 18 -86 83 -78 96 12 19 33 10 69 -30z m3402 -12
c84 -54 98 -68 66 -68 -33 0 -192 85 -192 103 0 3 8 8 18 10 9 3 19 5 21 6 2
0 41 -23 87 -51z m-288 -75 c51 -199 51 -198 4 -164 -41 28 -255 135 -357 176
-49 21 -94 40 -100 43 -14 9 58 21 125 21 31 1 64 7 75 15 29 20 50 24 141 25
l81 1 31 -117z m360 -41 c39 -31 87 -99 64 -91 -12 4 -162 149 -162 155 0 7
51 -26 98 -64z m137 -39 c77 -67 87 -90 23 -57 -41 21 -79 54 -72 65 2 4 -12
19 -33 33 -30 21 -33 26 -17 26 11 0 56 -30 99 -67z m75 -18 c19 -19 32 -35
29 -35 -3 0 -20 16 -39 35 -19 19 -32 35 -29 35 3 0 20 -16 39 -35z m-1314
-230 c19 -27 34 -43 34 -35 0 9 -16 39 -35 68 -20 28 -32 52 -27 52 16 0 53
-32 66 -59 17 -31 33 -151 21 -151 -40 0 -123 123 -139 205 l-6 30 26 -30 c14
-16 41 -52 60 -80z m990 -115 c71 -93 69 -83 36 -204 l-18 -70 -21 30 c-43 61
-144 346 -143 404 1 18 57 -44 146 -160z m-466 66 c0 -3 -4 -8 -10 -11 -5 -3
-10 -1 -10 4 0 6 5 11 10 11 6 0 10 -2 10 -4z m-792 -79 c4 -21 -16 -49 -29
-41 -5 3 -9 19 -9 35 0 24 4 30 17 27 10 -2 19 -11 21 -21z m58 -2 c21 -31 12
-57 -18 -53 -19 2 -24 10 -26 41 -4 45 18 51 44 12z m-116 -36 c0 -30 -27 -89
-41 -89 -18 0 -17 37 2 76 24 52 39 56 39 13z m60 -55 c13 -33 13 -85 0 -104
-18 -26 -40 17 -40 77 0 41 3 53 15 53 9 0 20 -12 25 -26z m1443 -17 c35 -15
64 -44 54 -54 -6 -6 -31 9 -77 46 -29 24 -22 26 23 8z m-17 -32 c39 -30 88
-109 81 -130 -3 -7 -18 -22 -33 -31 -26 -18 -26 -18 -65 23 -35 38 -65 110
-56 136 2 6 17 -9 34 -34 17 -25 39 -52 49 -60 16 -13 16 -12 4 11 -7 14 -24
42 -37 62 -35 57 -29 63 23 23z m-71 -96 c4 -15 0 -32 -10 -44 -15 -20 -15
-20 -30 -1 -18 24 -19 38 -3 91 l11 40 13 -31 c7 -17 16 -42 19 -55z m175 24
c0 -18 -17 -16 -24 3 -8 22 4 40 15 23 5 -8 9 -20 9 -26z m-515 -124 c5 -27 2
-40 -10 -53 -26 -26 -38 -9 -32 46 10 83 27 86 42 7z m375 13 c-40 -4 -45 1
-30 28 l12 22 25 -24 25 -23 -32 -3z m-440 -55 c-9 -62 -31 -97 -61 -97 -27 0
-31 16 -14 57 14 32 74 108 81 100 1 -1 -2 -28 -6 -60z m580 27 c0 -28 -7 -29
-35 -8 -20 15 -20 16 -1 29 24 18 36 11 36 -21z m-450 -71 c0 -29 -18 -39 -37
-20 -12 12 -14 26 -8 64 l7 48 19 -35 c10 -19 18 -45 19 -57z m-78 -20 c7 -27
-11 -83 -28 -90 -30 -11 -45 47 -24 88 13 24 46 25 52 2z m1230 -428 c122
-274 244 -660 332 -1048 3 -12 -9 -6 -38 21 -64 59 -146 108 -257 154 -55 23
-98 44 -96 47 26 48 63 141 78 200 20 78 26 218 10 249 -17 33 -84 217 -108
297 -26 87 -40 216 -28 261 l7 29 26 -50 c14 -27 47 -99 74 -160z m-172 131
c0 -2 -6 -19 -14 -37 -7 -19 -19 -66 -25 -104 -12 -70 -10 -99 25 -314 7 -44
7 -44 -15 -29 -12 8 -38 36 -58 62 l-36 46 6 110 c6 116 23 172 73 237 21 28
44 43 44 29z m30 -61 c0 -53 33 -184 76 -298 33 -89 43 -128 40 -160 -4 -41
-5 -42 -40 -41 -68 2 -79 19 -101 145 -23 130 -26 286 -6 342 14 43 31 49 31
12z m525 -259 c182 -84 383 -375 490 -707 25 -77 45 -145 45 -150 0 -25 -23 0
-83 89 -80 120 -140 230 -166 304 -66 192 -173 314 -378 432 -40 22 -73 44
-73 49 0 17 116 6 165 -17z m-709 -101 c18 -45 19 -81 0 -45 -16 30 -29 80
-21 80 3 0 13 -16 21 -35z m679 -7 c77 -51 161 -135 208 -206 43 -67 52 -85
102 -217 15 -38 64 -127 111 -197 112 -169 117 -183 46 -131 -128 94 -257 234
-307 333 -14 27 -43 94 -65 150 -53 133 -74 174 -121 237 -56 76 -51 82 26 31z
m-518 -183 c5 -69 6 -70 -67 53 -69 115 -67 140 6 65 54 -54 56 -60 61 -118z
m-24 -48 c32 -45 37 -58 37 -107 0 -30 -4 -61 -8 -68 -11 -17 -89 156 -102
227 -14 76 -12 81 13 37 12 -21 39 -61 60 -89z m140 78 l47 0 0 -62 c0 -49 -3
-63 -15 -63 -8 0 -20 -9 -27 -20 -16 -26 -27 -25 -59 3 -23 18 -28 33 -33 90
-5 67 -5 68 17 60 12 -4 43 -8 70 -8z m10 -195 c22 0 19 -16 -24 -109 l-30
-65 -20 21 c-19 19 -20 28 -14 106 l7 85 32 -19 c17 -10 39 -19 49 -19z m27
30 c0 -5 -4 -10 -10 -10 -5 0 -10 5 -10 10 0 6 5 10 10 10 6 0 10 -4 10 -10z
m-150 -187 c0 -57 -17 -36 -39 45 -12 43 -21 83 -21 88 2 24 59 -105 60 -133z
m250 -121 c159 -76 252 -155 269 -229 21 -90 50 -237 48 -240 -2 -1 -35 9 -74
22 -53 19 -78 23 -96 16 -57 -22 -40 -71 36 -105 l52 -22 -58 -37 c-31 -20
-60 -37 -62 -37 -3 0 -5 15 -5 34 0 42 -23 156 -44 214 -22 62 -116 245 -181
351 -54 90 -62 120 -27 102 9 -5 73 -36 142 -69z m-628 -102 c4 14 8 50 8 80
0 43 3 52 13 42 6 -7 12 -36 12 -65 0 -41 -7 -62 -30 -99 -16 -27 -33 -48 -38
-48 -32 0 -33 146 -1 215 l19 40 5 -95 c3 -64 7 -87 12 -70z m-379 92 c-20
-26 -67 -51 -78 -40 -12 12 9 38 48 57 49 25 58 20 30 -17z m71 0 c-13 -21
-44 -28 -44 -11 0 7 8 21 17 31 21 24 44 7 27 -20z m51 -12 c14 -45 -27 -88
-52 -54 -10 13 -8 22 9 45 26 34 34 36 43 9z m-97 -46 c5 -33 -65 -120 -83
-103 -14 15 51 132 70 126 6 -2 11 -12 13 -23z m1782 -199 c29 -36 -44 -62
-86 -31 -18 14 -17 15 16 30 44 19 55 19 70 1z m-434 -77 c23 -46 24 -48 5
-58 -24 -12 -27 -7 -41 56 -6 27 -13 58 -16 69 l-5 20 16 -20 c9 -11 27 -41
41 -67z m348 10 c8 -13 8 -23 0 -35 -17 -26 -46 -22 -64 10 -13 24 -13 29 0
37 21 14 51 8 64 -12z m74 -32 c15 -8 36 -23 46 -35 17 -18 17 -21 3 -27 -21
-8 -87 14 -94 32 -5 15 2 44 12 44 3 0 18 -6 33 -14z m-61 -93 c15 -38 11 -53
-16 -53 -23 0 -46 26 -66 73 -22 53 -19 57 26 34 28 -14 46 -31 56 -54z m-277
37 c0 -5 -2 -10 -4 -10 -3 0 -8 5 -11 10 -3 6 -1 10 4 10 6 0 11 -4 11 -10z
m-36 -22 c6 -24 -15 -48 -41 -48 -17 0 -16 5 2 40 19 36 31 38 39 8z m-166
-38 c58 -26 56 -44 -5 -35 -31 4 -57 15 -73 31 l-25 24 30 0 c17 0 49 -9 73
-20z m252 -25 c13 -14 19 -25 14 -25 -14 0 -54 30 -54 41 0 16 16 10 40 -16z
m-97 -69 c23 -18 21 -28 -5 -24 -13 2 -24 11 -26 21 -4 20 6 21 31 3z m128 -5
c20 -16 24 -29 26 -92 l3 -74 -21 45 c-11 24 -31 59 -45 77 -13 17 -24 38 -23
45 0 7 4 4 9 -7 8 -19 9 -19 9 3 1 27 12 28 42 3z m-285 -46 c-32 -41 -51 -99
-58 -175 -3 -21 -8 -25 -36 -25 l-33 0 -4 75 c-5 84 -15 71 94 137 30 18 58
33 63 33 4 0 -8 -20 -26 -45z m50 -65 c-14 -46 -23 -86 -21 -88 1 -2 11 10 21
27 19 33 34 32 34 -2 0 -12 9 -40 20 -62 l20 -40 -5 45 c-3 25 -8 61 -11 80
l-5 35 38 -42 c21 -24 41 -43 45 -43 3 0 -9 35 -28 78 -34 77 -34 77 -11 80
12 2 27 8 34 14 12 10 40 -27 85 -113 25 -48 29 -132 8 -174 -34 -67 -139 -97
-210 -60 -45 23 -82 105 -82 180 0 64 14 102 61 165 35 47 37 25 7 -80z m337
46 c52 -50 76 -111 61 -154 -9 -24 -14 -27 -59 -27 -43 0 -51 3 -62 25 -8 17
-9 26 -1 31 7 4 9 35 6 88 -3 45 -1 81 3 81 4 0 28 -20 52 -44z m-547 -174
c-9 -9 -46 30 -46 48 0 10 10 30 23 46 l22 29 3 -59 c2 -32 1 -61 -2 -64z
m-376 -16 c0 -24 -45 -81 -65 -81 -32 0 -27 21 12 59 41 39 53 44 53 22z m-97
-41 c-31 -32 -52 -45 -72 -45 -41 0 -56 22 -32 44 24 22 87 45 122 46 26 0 26
-1 -18 -45z m625 -46 c18 -27 44 -55 57 -61 30 -14 32 -46 6 -103 -21 -47 -46
-71 -81 -79 -30 -7 -76 15 -73 35 9 58 20 84 38 85 42 2 45 5 45 38 0 19 -11
49 -25 70 -21 32 -25 66 -6 66 3 0 21 -23 39 -51z m383 14 c67 -72 88 -125 63
-161 -22 -31 -70 -28 -126 7 -73 46 -76 60 -28 131 22 33 44 60 48 60 5 0 24
-17 43 -37z m-911 -34 c-8 -45 -32 -75 -49 -65 -19 12 -12 43 15 75 35 41 43
39 34 -10z m326 -24 c-8 -26 -21 -52 -28 -56 -51 -33 -52 30 -2 78 20 19 38
32 40 30 2 -2 -2 -25 -10 -52z m68 -178 c9 -19 -11 -80 -24 -72 -12 7 -40 137
-40 182 0 21 10 58 23 83 l22 45 5 -110 c3 -60 9 -118 14 -128z m-484 208 c10
-12 7 -20 -18 -45 -18 -17 -41 -30 -56 -30 -23 0 -24 2 -14 30 10 30 42 60 64
60 6 0 17 -7 24 -15z m503 -10 c-7 -21 -13 -19 -13 6 0 11 4 18 10 14 5 -3 7
-12 3 -20z m71 -7 c31 -44 12 -90 -22 -56 -14 14 -16 78 -3 78 6 0 17 -10 25
-22z m-49 -114 c-3 -24 -10 -44 -16 -44 -13 0 -11 51 3 91 15 43 23 17 13 -47z
m298 45 c8 -29 -9 -70 -26 -63 -12 4 -47 55 -47 67 0 5 25 12 56 16 7 0 14 -8
17 -20z"/>
<path d="M9450 9325 c0 -2 10 -10 23 -16 20 -11 21 -11 8 4 -13 16 -31 23 -31
12z"/>
<path d="M4570 10854 c-14 -10 -44 -35 -67 -57 l-43 -41 -31 32 c-40 41 -79
42 -142 2 -69 -44 -114 -118 -133 -221 -9 -46 -17 -85 -19 -87 -1 -1 -23 3
-48 10 -41 11 -48 10 -67 -7 -28 -25 -25 -39 16 -85 l35 -39 -98 -47 c-141
-67 -143 -67 -143 -44 0 10 -9 25 -20 33 -19 13 -18 16 30 65 56 58 86 110 72
124 -10 10 -94 -20 -159 -58 -46 -27 -90 -84 -117 -154 -10 -27 -45 -74 -86
-118 l-70 -74 -2 79 c0 43 -2 85 -3 93 0 8 24 42 56 76 69 73 127 161 181 273
52 110 78 185 68 201 -13 20 -73 3 -174 -49 -315 -164 -544 -375 -658 -606
l-40 -80 6 -95 c3 -52 10 -121 15 -154 5 -32 7 -64 5 -71 -3 -7 -33 -32 -67
-56 -274 -190 -558 -463 -778 -749 -114 -148 -243 -348 -418 -647 -24 -42 -49
-73 -58 -73 -10 0 -13 5 -8 18 4 9 27 71 52 137 100 271 171 383 370 594 136
143 154 166 194 243 28 55 65 185 56 195 -3 2 -13 -20 -22 -49 -44 -133 -88
-198 -254 -372 -141 -149 -250 -300 -296 -411 -15 -38 -41 -99 -56 -134 -27
-63 -27 -64 -34 -32 -3 17 -11 31 -16 31 -5 0 -24 -21 -42 -46 l-32 -46 -3 74
c-7 170 64 452 153 603 30 52 115 132 160 151 57 23 110 18 134 -12 48 -61 12
-121 -109 -181 l-85 -42 41 -1 c49 0 134 40 168 81 41 48 52 99 31 142 -17 37
-65 67 -107 67 -78 0 -194 -81 -258 -180 -72 -112 -143 -345 -160 -525 -12
-132 -7 -389 8 -428 7 -16 9 -51 6 -86 -6 -51 -10 -61 -33 -72 -14 -7 -29 -15
-32 -16 -3 -2 -30 29 -59 69 -29 40 -58 78 -62 85 -6 8 -1 27 15 55 38 64 51
122 37 164 -17 49 -44 61 -74 31 -12 -13 -25 -30 -28 -38 -3 -10 -15 -4 -40
24 -25 26 -41 35 -53 31 -25 -10 -35 -47 -24 -86 13 -45 13 -45 -21 -51 -26
-6 -30 -11 -30 -42 0 -45 30 -65 113 -74 34 -4 73 -13 87 -21 25 -15 25 -15
-19 -20 -68 -8 -87 -39 -84 -146 l2 -84 -33 0 c-100 0 -133 -136 -65 -271 10
-20 41 -61 68 -91 l51 -56 -42 -34 c-40 -33 -42 -37 -33 -64 10 -27 14 -29 68
-29 31 0 57 -4 57 -9 0 -5 -22 -102 -49 -215 -50 -208 -87 -394 -115 -576 -45
-286 -57 -359 -61 -363 -10 -11 -67 131 -82 204 -14 69 -15 102 -5 254 16 255
-3 369 -98 565 -61 125 -105 195 -125 195 -32 0 -63 -104 -90 -310 -37 -274
-2 -546 98 -760 24 -50 87 -117 132 -140 67 -34 159 -90 166 -102 4 -7 5 -98
2 -203 -5 -170 3 -351 23 -512 8 -65 -4 -68 -33 -10 -31 63 -81 127 -99 127
-13 0 -15 -12 -12 -70 2 -39 0 -70 -4 -70 -5 0 -8 5 -8 12 0 6 -3 9 -6 6 -3
-4 15 -42 40 -86 25 -45 52 -98 61 -119 16 -40 46 -165 41 -170 -1 -2 -34 8
-71 20 l-69 24 -11 59 c-18 96 -64 164 -111 164 -29 0 -38 -14 -36 -62 2 -43
3 -42 -49 -27 -30 9 -42 9 -54 -1 -24 -20 -18 -46 20 -78 34 -31 35 -31 18
-60 -16 -28 -16 -31 0 -56 19 -28 47 -33 91 -16 31 11 30 13 9 -36 -24 -58
-22 -173 6 -256 59 -176 251 -421 444 -567 69 -53 267 -171 285 -171 19 0 37
52 52 145 9 57 18 83 31 93 10 7 19 24 19 38 0 19 5 24 24 24 68 0 131 -49
247 -194 79 -98 159 -226 159 -254 0 -5 -19 -12 -42 -15 -24 -2 -51 -8 -61
-12 -15 -6 -17 1 -18 71 0 99 -22 160 -68 191 -39 27 -80 29 -121 8 -37 -19
-56 -55 -65 -123 -6 -44 -10 -52 -24 -46 -60 25 -91 11 -91 -42 l0 -33 -67 6
c-110 9 -177 -34 -157 -101 9 -30 61 -83 111 -112 l42 -24 -24 -37 c-29 -41
-30 -54 -11 -91 21 -41 65 -78 121 -103 42 -19 67 -22 153 -21 l102 0 0 -47
c0 -52 12 -71 47 -71 24 0 47 18 73 58 15 22 18 19 165 -165 185 -232 306
-370 528 -601 44 -45 78 -85 75 -88 -8 -7 -133 42 -193 76 -100 57 -166 149
-120 166 23 9 48 -15 34 -32 -9 -11 -8 -14 4 -14 24 0 28 29 7 50 -11 11 -24
20 -29 20 -22 0 -43 -14 -51 -35 l-9 -23 -54 28 c-29 15 -78 45 -108 67 -77
56 -153 97 -239 128 -83 30 -292 75 -346 75 -29 0 -34 -3 -34 -24 0 -33 76
-132 195 -250 111 -112 229 -205 347 -274 43 -25 81 -48 83 -52 3 -4 -16 -15
-40 -25 -35 -13 -45 -22 -45 -39 0 -33 19 -46 67 -46 41 0 43 -2 43 -28 0 -16
8 -36 18 -45 41 -37 84 -10 122 76 17 38 25 47 38 42 9 -4 44 -9 77 -12 63 -5
87 1 230 56 44 17 85 31 92 31 7 0 40 -24 74 -53 270 -229 477 -368 757 -510
215 -109 486 -212 794 -302 163 -48 211 -66 200 -77 -8 -8 -36 -5 -277 28
-208 29 -358 82 -537 189 -136 82 -210 120 -285 146 -71 24 -202 36 -229 21
-16 -9 -10 -11 32 -12 119 0 243 -49 473 -183 133 -77 225 -117 347 -151 128
-34 353 -66 469 -66 118 0 116 -8 -11 -51 -337 -112 -743 -101 -931 28 -93 63
-127 170 -67 210 53 34 135 -6 202 -100 38 -53 51 -50 32 7 -14 45 -84 108
-142 130 -39 15 -52 16 -82 6 -123 -40 -92 -203 57 -297 147 -93 491 -124 757
-67 153 33 369 113 377 140 2 6 -19 38 -46 70 l-50 59 50 16 c27 9 60 26 73
38 28 27 36 27 36 0 0 -28 34 -83 68 -110 20 -16 23 -23 13 -27 -21 -7 -61
-49 -61 -63 0 -6 13 -23 29 -38 l29 -27 -40 -34 c-23 -18 -49 -53 -60 -77 -10
-23 -23 -43 -28 -43 -6 0 -10 -7 -10 -15 0 -8 5 -15 11 -15 6 0 24 -11 41 -25
32 -27 68 -31 128 -16 93 24 98 23 110 -15 15 -46 59 -68 117 -60 41 5 42 5
31 -14 -15 -23 -27 -24 -81 -9 -71 19 -187 -21 -187 -66 0 -23 30 -45 61 -45
16 0 29 -2 29 -5 0 -2 -11 -21 -25 -41 -28 -41 -30 -55 -13 -72 18 -18 52 -15
81 8 32 25 44 25 57 0 16 -30 65 -27 87 6 15 23 15 34 5 95 -7 38 -12 79 -12
92 1 30 28 61 76 85 44 22 107 86 143 145 12 20 25 37 28 37 3 0 21 -14 40
-30 37 -33 64 -38 83 -15 12 15 10 75 -4 106 -6 15 31 17 396 22 222 3 444 10
493 16 50 5 140 12 200 16 l110 6 -40 -35 c-50 -44 -153 -99 -225 -120 -30 -9
-117 -26 -192 -37 -138 -20 -255 -52 -338 -94 -104 -53 -350 -250 -350 -281 0
-24 45 -34 148 -34 184 0 400 35 567 91 96 33 255 115 318 164 81 64 108 106
150 239 23 70 45 119 55 125 10 5 62 17 117 26 389 65 841 234 1188 442 64 39
117 68 117 64 0 -4 -29 -43 -64 -87 -57 -73 -70 -84 -130 -107 -76 -31 -86
-32 -86 -13 0 41 -67 22 -77 -22 -5 -22 -22 -35 -92 -70 -97 -48 -167 -103
-212 -168 -35 -52 -23 -60 15 -9 33 43 129 112 223 159 103 51 130 49 69 -5
-40 -34 -102 -127 -92 -136 4 -4 28 -1 53 5 40 11 48 11 55 -3 19 -32 52 -54
102 -66 28 -6 57 -16 63 -21 13 -10 53 -7 86 7 14 6 17 1 17 -32 0 -86 56 -96
92 -16 13 30 24 43 34 39 8 -3 20 -9 28 -12 18 -7 56 30 56 54 0 10 -10 32
-22 50 l-23 33 105 107 c160 162 271 344 343 563 49 150 51 156 28 168 -12 7
-84 7 -217 0 -108 -5 -201 -6 -204 -2 -4 5 -2 38 4 74 9 51 19 74 46 106 67
78 397 360 408 348 3 -3 -39 -51 -94 -108 -110 -112 -156 -178 -175 -248 -11
-41 -10 -50 5 -74 22 -33 50 -29 54 8 3 23 0 27 -22 27 -33 0 -32 11 2 84 l28
59 12 -41 c13 -43 49 -78 91 -89 14 -3 34 -14 45 -24 21 -20 56 -10 56 16 0 8
4 15 10 15 5 0 9 -17 8 -38 -2 -56 7 -65 58 -59 l44 5 0 -37 c0 -94 43 -161
103 -161 45 0 78 34 110 113 20 48 29 61 44 59 74 -14 89 -13 117 9 16 12 39
45 52 73 35 75 32 162 -10 292 -6 19 -2 23 31 29 58 11 73 22 73 56 0 26 -6
33 -51 53 l-50 24 73 88 c226 274 402 509 533 708 38 57 39 58 53 37 8 -11 23
-21 33 -21 45 0 4 -135 -92 -302 -144 -249 -163 -318 -164 -585 0 -214 4 -230
53 -203 49 28 182 210 270 370 89 164 148 354 158 515 8 122 -5 186 -48 246
-54 75 -58 94 -45 208 7 56 15 103 19 104 4 1 44 -47 89 -107 l81 -108 -31
-60 c-49 -95 -41 -198 15 -198 18 0 31 10 46 36 l21 35 21 -31 c27 -39 64 -50
83 -24 13 18 13 37 -3 90 -5 17 0 22 24 27 21 4 31 13 36 32 14 53 -26 80
-136 92 -67 7 -67 7 -167 155 l-72 107 40 80 c23 44 63 135 90 203 157 396
235 772 271 1308 17 262 30 265 55 12 29 -306 18 -415 -70 -693 -66 -206 -80
-291 -65 -383 6 -37 17 -82 25 -99 l14 -32 -7 45 c-4 25 -7 88 -6 140 1 97 26
214 75 340 32 84 69 255 75 355 9 124 -12 418 -36 512 -11 42 -18 78 -16 81 8
7 74 -91 119 -178 127 -243 194 -562 153 -735 -30 -125 -94 -205 -166 -205
-30 0 -43 6 -59 26 -12 15 -21 33 -21 42 0 39 27 96 72 151 56 70 43 83 -24
23 -51 -46 -77 -102 -78 -165 0 -42 5 -54 34 -83 58 -58 130 -44 200 37 66 77
81 133 80 299 0 215 -36 368 -130 567 -44 92 -168 287 -199 313 -20 17 -32 6
-114 -110 -71 -99 -334 -431 -338 -426 -2 2 2 37 9 77 14 87 14 319 -1 369 -8
27 -9 7 -5 -85 3 -79 1 -132 -7 -155 -15 -46 -97 -153 -231 -303 -60 -67 -129
-149 -151 -182 -23 -32 -45 -63 -48 -68 -3 -5 -62 -24 -130 -43 -68 -20 -156
-49 -196 -65 l-72 -31 -65 26 c-74 30 -69 29 -118 15 -44 -12 -52 -41 -16 -60
21 -11 21 -12 -15 -30 -48 -25 -62 -51 -38 -73 20 -18 65 -14 114 11 16 8 30
13 30 11 16 -32 28 -44 49 -46 37 -4 68 39 68 94 l0 43 78 29 c88 34 271 86
278 79 3 -3 -20 -55 -50 -115 -47 -93 -61 -114 -91 -127 -57 -28 -126 -96
-151 -150 -29 -61 -30 -85 -6 -85 33 0 142 61 159 88 9 15 18 29 20 31 2 3 10
-5 19 -17 17 -25 72 -30 92 -10 30 30 4 93 -29 72 -9 -5 -6 -10 10 -15 18 -7
20 -12 12 -28 -16 -29 -39 -33 -63 -9 -36 36 -21 112 47 248 73 145 132 232
233 345 45 50 118 135 163 190 45 55 85 101 89 103 5 2 -2 -44 -14 -101 -18
-87 -31 -119 -73 -188 -87 -144 -113 -251 -78 -318 13 -26 12 -39 -10 -135
-13 -59 -27 -132 -31 -164 -9 -77 -19 -93 -119 -199 -108 -115 -155 -153 -218
-174 -49 -17 -51 -17 -67 4 -19 23 -50 18 -50 -8 0 -30 43 -39 103 -21 69 20
153 82 240 176 37 41 67 71 67 67 0 -36 -163 -272 -212 -307 -37 -27 -43 -29
-58 -15 -31 28 -67 15 -54 -19 4 -11 19 -16 45 -16 34 0 48 7 90 47 60 56 107
119 165 221 l44 77 0 -52 c0 -29 -5 -98 -11 -153 l-12 -100 -66 -47 c-36 -26
-103 -83 -148 -126 l-82 -79 -93 -18 c-51 -11 -108 -23 -127 -29 -29 -9 -41
-6 -94 21 -75 37 -165 49 -186 24 -12 -14 -12 -21 0 -42 12 -23 11 -27 -3 -35
-30 -17 -47 -39 -42 -53 8 -21 60 -39 89 -32 23 6 25 4 19 -19 -5 -20 -2 -26
20 -35 45 -17 87 12 160 112 28 38 34 40 195 73 33 7 32 6 -54 -96 -125 -148
-205 -263 -205 -292 0 -31 18 -36 100 -26 36 4 66 6 68 5 1 -2 -8 -25 -22 -52
-30 -62 -51 -132 -42 -141 9 -9 128 51 168 85 27 23 30 23 42 7 19 -27 53 -11
67 32 7 21 9 57 5 88 l-6 52 59 37 c74 45 128 106 193 216 103 173 203 300
226 286 7 -4 12 -28 12 -53 0 -36 -11 -65 -57 -147 -106 -190 -291 -467 -437
-656 -86 -110 -312 -393 -349 -435 l-35 -40 -15 51 c-23 77 -44 113 -72 120
-41 10 -58 -12 -52 -66 3 -25 9 -54 13 -64 6 -16 4 -18 -17 -12 -13 3 -63 17
-111 29 l-87 23 116 115 c112 111 172 185 228 282 46 80 22 63 -39 -27 -31
-47 -72 -98 -92 -114 -39 -32 -181 -76 -379 -116 -66 -13 -162 -38 -214 -55
l-93 -30 -134 50 c-73 27 -162 54 -198 61 -61 12 -66 15 -82 49 -25 56 -75
101 -115 102 -35 2 -40 -7 -25 -44 6 -14 -1 -16 -51 -15 -46 1 -58 -2 -61 -16
-5 -25 32 -56 83 -69 35 -9 45 -15 40 -27 -3 -8 2 -25 10 -38 29 -45 96 -24
132 40 10 17 13 17 92 -3 91 -24 271 -90 271 -100 0 -3 -46 -31 -103 -61
l-102 -54 -92 3 c-97 3 -145 -11 -214 -60 -38 -27 -27 -41 45 -59 52 -12 110
-10 149 5 13 6 17 2 17 -18 0 -14 7 -33 16 -41 19 -20 68 -21 84 -1 17 20 8
49 -15 52 -11 2 -14 0 -7 -3 16 -8 15 -29 -2 -43 -23 -20 -56 4 -56 39 0 46
61 99 190 167 142 75 252 113 440 152 80 17 185 42 234 56 48 15 90 24 92 22
8 -8 -140 -139 -316 -280 -171 -137 -410 -344 -410 -357 0 -15 -67 -42 -147
-60 -178 -40 -356 -36 -369 8 -16 51 -49 66 -49 22 0 -19 11 -31 45 -50 41
-23 55 -25 165 -24 92 0 138 5 195 22 59 17 71 18 55 6 -53 -41 -292 -124
-359 -124 -43 0 -46 2 -46 25 0 32 -26 43 -48 22 -15 -15 -14 -19 8 -42 23
-24 23 -25 3 -25 -39 0 -150 -40 -188 -68 l-39 -28 -71 29 c-67 28 -73 33
-100 85 -43 82 -96 134 -132 130 -22 -2 -29 -9 -31 -30 -3 -24 -8 -27 -45 -30
-56 -4 -60 -28 -12 -74 30 -28 35 -37 25 -49 -17 -21 -3 -51 29 -65 24 -9 41
-8 93 6 103 28 123 28 183 3 43 -18 54 -27 49 -38 -4 -9 -9 -37 -12 -62 -5
-59 24 -119 73 -149 20 -12 34 -24 32 -26 -5 -5 -148 -54 -158 -54 -5 0 -24
14 -43 30 -45 40 -122 73 -151 66 -30 -8 -42 -42 -21 -64 14 -16 11 -20 -37
-45 -69 -36 -131 -87 -119 -99 11 -11 169 -29 198 -22 19 5 23 1 26 -23 2 -15
10 -29 18 -31 24 -4 79 35 101 72 18 31 24 34 82 39 106 10 193 44 455 178
138 71 252 124 252 119 0 -5 -11 -33 -24 -63 -23 -52 -28 -56 -162 -136 -157
-93 -412 -221 -554 -276 -123 -48 -299 -105 -326 -105 -13 0 -54 34 -110 91
-49 49 -109 102 -133 116 l-44 26 89 44 c96 47 94 47 -38 0 l-87 -30 -88 21
c-49 11 -110 24 -138 28 -27 3 -120 37 -205 74 -86 38 -187 78 -225 89 l-70
22 -70 106 c-38 59 -92 131 -120 162 l-50 54 0 81 c0 63 -4 87 -19 108 -25 38
-53 36 -61 -2 l-7 -31 -19 24 c-10 14 -32 30 -50 37 -26 11 -32 11 -40 -1 -12
-19 -3 -46 31 -96 24 -35 27 -43 14 -54 -20 -16 -17 -53 6 -74 19 -17 76 -18
120 -2 10 4 32 -15 66 -56 58 -69 168 -236 162 -243 -3 -2 -58 4 -123 13 -115
16 -119 18 -168 60 -28 24 -69 52 -92 63 -48 23 -159 38 -169 22 -11 -19 72
-112 122 -135 60 -28 58 -25 44 -39 -31 -31 0 -98 45 -98 26 0 47 25 39 45 -8
23 -25 18 -19 -6 5 -18 2 -20 -23 -17 -23 2 -30 9 -32 29 -7 60 67 79 238 60
158 -19 302 -62 487 -148 l61 -28 -251 0 c-261 0 -297 -5 -297 -42 0 -8 20
-35 44 -59 l43 -44 -31 -4 c-17 -2 -91 -12 -163 -21 l-133 -17 -112 51 c-62
28 -141 69 -175 91 -69 44 -124 113 -105 132 17 17 15 48 -4 55 -25 9 -37 -12
-29 -53 5 -28 23 -54 68 -99 59 -59 123 -97 251 -149 103 -42 -42 -20 -199 30
-91 30 -165 69 -165 87 0 7 5 18 10 23 17 17 0 45 -24 42 -37 -5 -32 -44 11
-87 47 -46 170 -96 296 -120 48 -9 87 -18 87 -21 0 -12 -261 -70 -314 -70 -30
0 -34 4 -54 53 -43 103 -112 141 -170 92 l-31 -26 -24 38 c-13 21 -37 63 -52
93 -15 30 -44 80 -65 110 l-37 55 5 110 c4 99 2 112 -16 135 -17 22 -23 23
-46 12 -14 -6 -26 -16 -26 -22 0 -6 -15 1 -34 15 -32 24 -35 25 -51 9 -17 -17
-17 -54 0 -96 5 -12 2 -18 -8 -18 -8 0 -20 -7 -27 -15 -11 -13 -10 -22 2 -48
13 -27 29 -38 89 -61 41 -15 81 -31 89 -35 8 -4 41 -52 74 -107 32 -54 72
-121 88 -148 20 -33 27 -57 23 -73 -7 -31 -18 -29 -75 16 -97 76 -184 89 -240
36 l-27 -26 -21 58 c-27 74 -65 115 -100 111 -21 -2 -28 -9 -30 -29 l-3 -25
-107 3 -107 3 -27 32 c-35 42 -35 45 5 42 27 -3 24 -1 -15 12 -37 12 -57 28
-104 85 -72 88 -171 180 -248 231 -51 33 -68 52 -118 136 -32 53 -75 122 -97
152 l-40 55 -2 212 -3 213 31 32 c40 43 53 70 55 113 2 52 -16 65 -47 35 l-25
-23 0 31 c0 43 -20 82 -41 82 -25 0 -39 -30 -39 -87 0 -43 -3 -50 -30 -65 -54
-31 -31 -98 40 -119 l39 -12 7 -65 c6 -63 -3 -302 -12 -311 -10 -10 -184 174
-184 194 0 31 -28 114 -50 150 -27 43 -108 117 -120 110 -14 -8 -13 -105 2
-146 6 -19 19 -45 29 -59 17 -25 17 -26 -12 -42 -36 -21 -40 -65 -8 -94 23
-21 52 -10 57 22 3 18 2 18 -8 2 -14 -24 -37 -23 -50 1 -13 25 -13 27 6 45 43
43 119 4 254 -133 103 -103 183 -207 249 -323 l32 -58 -40 0 c-48 0 -89 -14
-118 -42 l-22 -21 -138 90 c-76 50 -197 123 -269 162 l-130 72 -47 78 c-84
142 -119 226 -124 299 -5 63 -4 68 18 77 30 12 33 50 4 50 -32 0 -47 -42 -41
-120 6 -94 42 -183 132 -321 l19 -28 -21 14 c-41 29 -177 199 -209 259 -10 19
-21 47 -25 62 -7 24 -5 28 17 34 34 8 29 50 -7 50 -21 0 -26 -5 -28 -33 -4
-39 -14 -41 -36 -7 -9 14 -46 61 -82 106 l-64 80 6 82 c7 81 8 83 57 137 63
69 93 131 77 161 -9 16 -19 20 -40 17 -25 -4 -30 -1 -35 23 -14 64 -66 58 -86
-11 -13 -43 -18 -47 -38 -27 -10 10 -16 7 -32 -12 -29 -35 -24 -61 31 -145 41
-62 50 -84 49 -119 -1 -82 -9 -85 -66 -23 -48 53 -83 70 -98 46 -13 -21 -24
-188 -17 -257 5 -40 6 -73 3 -73 -6 0 -121 152 -135 177 -4 7 2 42 14 79 22
73 25 116 10 145 -14 26 -54 24 -72 -3 l-15 -22 -12 21 c-12 24 -123 113 -140
113 -5 0 -12 -4 -15 -9 -8 -13 21 -146 39 -181 13 -25 13 -30 1 -30 -21 0 -38
-27 -31 -49 10 -33 70 -62 138 -68 37 -4 65 -11 70 -20 5 -7 44 -59 88 -114
46 -58 88 -121 99 -153 32 -83 74 -139 186 -244 57 -53 104 -100 104 -104 0
-11 -99 -10 -141 2 -68 19 -389 365 -707 763 -79 97 -145 183 -148 191 -4 10
12 15 62 19 76 7 114 27 114 60 0 36 -19 47 -82 47 -32 0 -58 3 -58 6 0 4 16
32 35 64 19 31 43 76 53 98 l19 42 56 -83 c31 -45 77 -102 103 -127 57 -54 51
-43 -37 72 -42 55 -71 103 -75 126 -9 44 2 305 16 387 5 33 10 114 10 180 l0
120 90 115 c49 63 103 140 120 171 29 56 30 56 92 69 48 9 69 19 96 46 40 40
38 58 -6 62 l-32 3 20 39 c24 47 25 69 4 77 -23 9 -62 -16 -86 -56 -12 -20
-23 -37 -24 -39 -1 -2 -12 2 -24 8 -17 9 -26 8 -46 -5 -31 -20 -32 -63 -2
-114 l22 -38 -29 -49 c-23 -41 -71 -105 -172 -232 -7 -9 -15 -13 -18 -10 -3 3
-15 57 -26 121 l-21 117 21 43 c35 73 46 139 33 209 -14 75 -25 89 -51 63 -34
-35 -71 -116 -71 -156 0 -37 -1 -38 -35 -37 -19 1 -41 -5 -50 -12 -19 -16 -20
-64 0 -80 17 -14 47 -10 53 8 3 9 -3 11 -22 6 -23 -5 -26 -3 -26 19 0 13 7 31
16 38 23 19 63 -6 91 -56 57 -103 84 -415 55 -660 -7 -60 -16 -157 -20 -215
l-7 -105 -42 87 c-45 93 -82 182 -164 403 -52 140 -161 388 -182 413 -14 17
-10 131 7 242 21 124 32 161 66 211 25 37 34 44 62 44 26 0 33 4 33 20 0 67
-108 -22 -144 -120 -12 -32 -26 -92 -32 -134 -22 -157 -28 -170 -23 -46 3 68
1 148 -5 185 -15 85 -4 126 31 122 33 -3 56 22 38 43 -7 8 -18 15 -25 15 -17
0 -65 -57 -65 -77 0 -11 -7 -8 -25 11 -31 34 -83 56 -130 56 l-36 0 27 51 c16
28 71 97 124 152 52 56 105 116 118 133 19 27 31 34 89 44 118 20 183 61 167
104 -3 8 -15 18 -26 22 -15 4 -18 11 -13 27 16 50 12 62 -24 65 -24 3 -40 -3
-57 -19 l-24 -23 -16 22 c-20 29 -35 28 -64 -3 -21 -22 -25 -39 -30 -119 -6
-106 2 -93 -147 -254 -54 -59 -105 -126 -123 -161 -16 -34 -34 -61 -39 -61
-24 0 -51 171 -51 326 l0 122 51 32 c55 36 99 92 99 127 0 27 -30 46 -51 32
-23 -14 -29 -11 -29 19 0 15 -9 58 -19 96 -19 68 -19 69 1 115 20 44 21 45 28
21 7 -21 8 -17 9 19 1 23 21 107 45 185 25 77 47 152 50 166 3 14 56 81 117
150 62 69 137 159 168 200 30 41 59 78 64 81 5 4 62 21 126 39 64 18 150 48
191 66 l75 33 34 -20 c42 -25 116 -35 154 -20 34 13 35 33 2 51 l-25 13 36 21
c52 29 65 53 39 72 -21 16 -61 11 -107 -12 -24 -12 -27 -12 -42 11 -37 56
-106 10 -106 -69 l0 -42 -70 -27 c-62 -24 -189 -63 -262 -81 l-27 -6 16 37 c8
21 33 73 54 115 32 64 46 81 80 99 66 33 124 93 154 160 34 76 26 87 -44 60
-63 -24 -117 -63 -126 -92 l-7 -21 -23 22 c-44 41 -105 23 -105 -30 0 -30 26
-48 44 -30 7 7 5 10 -7 10 -20 0 -23 30 -5 48 34 34 68 -3 68 -71 0 -41 -10
-73 -44 -145 -54 -115 -104 -200 -159 -274 -41 -55 -239 -279 -243 -275 -1 1
7 53 18 116 22 126 19 161 -13 161 -16 0 -19 4 -14 18 17 45 88 339 106 442
10 63 27 126 36 140 9 14 66 75 127 136 94 94 120 115 170 133 l59 22 19 -21
c15 -16 23 -18 38 -10 26 14 25 27 -1 41 -28 15 -76 6 -147 -26 -42 -19 -83
-52 -154 -126 -54 -54 -98 -97 -98 -94 0 32 161 266 208 304 45 35 57 38 66
16 7 -20 45 -19 53 1 3 8 -1 22 -10 31 -50 51 -179 -66 -294 -267 l-43 -75 0
45 c0 54 27 279 39 333 24 100 103 148 312 187 63 12 138 28 168 37 53 15 53
15 118 -17 78 -37 149 -48 178 -27 17 13 18 18 7 43 -11 23 -11 29 2 36 21 12
46 38 46 48 0 17 -45 40 -77 40 -25 0 -33 4 -33 18 0 10 -5 23 -12 30 -33 33
-94 -4 -162 -97 -39 -53 -26 -48 -260 -96 -79 -16 -141 -36 -187 -59 -56 -29
-69 -32 -69 -19 0 33 80 181 152 282 l74 103 80 2 c95 2 144 23 144 61 0 17
-8 29 -25 37 -14 6 -24 16 -22 22 2 6 40 32 85 59 166 97 253 206 238 296 l-6
39 63 21 c78 26 160 47 257 67 133 27 241 55 296 75 l54 21 138 -50 c75 -28
166 -56 201 -63 57 -11 65 -15 77 -44 21 -50 61 -92 100 -105 46 -16 63 -2 45
36 l-12 26 44 -6 c52 -8 77 0 77 24 0 25 -29 47 -83 61 -38 11 -46 17 -41 31
10 32 -13 58 -53 58 -28 0 -42 -8 -72 -39 l-36 -39 -73 19 c-87 23 -272 90
-272 99 0 3 48 31 108 62 l107 56 77 -5 c56 -4 89 -1 124 11 50 17 124 63 124
77 0 4 -23 15 -51 24 -50 17 -132 17 -171 0 -15 -6 -18 -2 -18 24 0 22 -7 35
-26 48 -24 15 -29 15 -53 2 -32 -18 -36 -62 -6 -67 16 -3 18 -1 8 9 -19 19
-16 37 7 44 28 9 50 -11 50 -46 0 -49 -68 -105 -210 -176 -139 -69 -264 -110
-450 -147 -69 -14 -163 -37 -209 -51 -46 -14 -86 -23 -88 -21 -8 7 158 154
322 284 153 122 282 233 386 332 48 46 162 85 302 105 144 20 232 2 239 -47 4
-30 48 -39 48 -10 0 55 -131 97 -255 82 -33 -4 -62 -6 -64 -4 -1 1 38 23 88
48 101 51 171 62 171 27 0 -28 26 -47 45 -31 8 7 15 18 15 26 0 18 -40 44 -69
44 l-24 0 22 24 c39 42 26 58 -77 91 l-93 30 23 22 c13 12 36 27 52 33 44 16
156 -4 249 -45 126 -57 231 -102 249 -108 9 -3 29 -30 44 -59 14 -28 36 -65
48 -81 43 -59 116 -72 116 -22 0 21 5 24 43 27 35 2 43 7 45 25 3 22 -30 65
-57 74 -11 4 -11 9 -1 26 17 26 7 50 -26 65 -22 10 -41 8 -113 -10 -47 -12
-93 -22 -101 -22 -8 0 -73 27 -144 60 -147 69 -212 90 -272 90 -24 0 -45 4
-48 9 -14 22 155 108 319 161 l101 33 53 -40 c62 -48 113 -66 147 -53 28 11
32 41 9 64 -14 14 -10 18 42 44 32 16 73 33 90 37 49 10 73 47 73 113 0 52 1
54 23 48 12 -4 63 -10 113 -13 72 -4 96 -2 122 11 34 17 62 61 62 96 0 53 -56
115 -116 126 -43 8 -49 17 -29 48 25 38 16 69 -25 82 -39 13 -40 16 -21 59 8
17 16 53 19 82 4 45 1 55 -21 77 -31 31 -80 34 -117 10z m96 -39 c14 -21 15
-32 5 -73 -13 -48 -49 -112 -65 -112 -22 0 -128 45 -133 56 -7 18 55 102 97
130 45 31 75 31 96 -1z m-266 -45 c12 -12 20 -33 20 -55 0 -32 -6 -38 -72 -83
-85 -57 -132 -102 -148 -143 -20 -48 -27 -33 -18 40 14 116 72 216 143 247 41
18 52 17 75 -6z m-710 -18 c0 -4 -34 -41 -75 -82 -67 -67 -75 -72 -75 -49 0
14 -5 30 -12 37 -16 16 -8 22 77 66 73 37 85 41 85 28z m13 -69 c-37 -91 -53
-114 -71 -104 -9 4 -26 5 -37 0 -42 -17 -37 -7 35 66 41 41 78 75 82 75 4 0 0
-17 -9 -37z m-183 -87 c0 -20 -36 -66 -52 -66 -13 0 -9 48 8 88 15 35 16 36
30 18 8 -11 14 -29 14 -40z m1021 23 c72 -36 100 -135 56 -200 -59 -87 -192
-123 -295 -79 -79 34 -66 43 51 36 101 -6 102 -6 64 10 l-38 17 48 27 c77 44
88 67 17 35 -65 -30 -94 -40 -94 -33 0 3 14 22 30 43 44 56 37 61 -23 16 -54
-41 -114 -71 -142 -71 -13 0 -12 6 5 40 32 62 88 118 149 150 67 35 117 37
172 9z m-1096 -16 c-9 -36 -9 -37 -35 -23 l-22 12 28 19 c37 24 37 24 29 -8z
m1269 -12 c6 -10 -40 -71 -53 -71 -4 0 -13 12 -20 27 -11 23 -10 29 5 40 21
15 60 17 68 4z m-1296 -56 c12 -27 7 -55 -11 -55 -19 0 -47 33 -47 56 0 40 40
39 58 -1z m212 13 c0 -30 -68 -117 -92 -118 -3 0 -4 19 -1 43 3 27 13 50 30
65 26 24 63 30 63 10z m-268 -98 c-4 -4 -37 -28 -74 -53 -130 -92 -212 -208
-274 -391 -21 -64 -42 -116 -46 -116 -13 0 -30 111 -23 152 19 108 111 247
262 396 l114 113 24 -48 c14 -26 21 -50 17 -53z m154 35 c9 -21 -24 -67 -44
-63 -24 5 -27 36 -6 59 21 23 42 25 50 4z m1242 -20 c59 -18 86 -49 84 -97 -1
-47 -31 -70 -97 -76 -48 -4 -163 12 -188 26 -5 2 9 23 32 46 22 22 45 55 51
73 7 20 20 33 33 36 12 2 25 5 28 6 3 0 29 -6 57 -14z m-878 -16 c-20 -36 -77
-93 -112 -112 l-33 -18 30 26 c37 33 16 23 -47 -22 -50 -36 -58 -32 -33 16 19
38 69 79 130 107 64 30 79 31 65 3z m235 -14 c35 -34 32 -49 -7 -41 -31 6 -68
37 -68 57 0 19 52 8 75 -16z m-681 -30 c18 -17 26 -34 26 -59 0 -40 -10 -49
-182 -165 -59 -40 -134 -102 -168 -138 -34 -36 -63 -63 -66 -61 -6 7 19 75 51
139 37 73 75 127 127 181 45 46 155 127 174 127 6 1 23 -10 38 -24z m96 -12
c0 -10 -42 -53 -52 -53 -18 0 -7 41 15 50 28 11 37 12 37 3z m594 -128 c-5
-61 -4 -79 10 -100 11 -17 15 -36 11 -54 -5 -23 -15 -30 -63 -46 -205 -64
-328 -127 -432 -222 l-55 -50 -111 6 -112 6 19 60 c11 33 31 83 47 110 24 44
37 55 112 94 137 72 554 271 568 271 10 0 11 -17 6 -75z m70 29 c8 -40 -10
-107 -27 -101 -17 5 -20 49 -7 96 13 50 26 52 34 5z m112 15 c40 -18 60 -21
126 -16 77 5 79 5 89 -20 5 -13 9 -40 9 -58 l0 -35 -47 6 c-88 9 -103 13 -132
35 -27 19 -107 109 -98 109 3 0 26 -10 53 -21z m-502 -31 c7 -12 6 -21 -4 -32
-12 -15 -15 -15 -33 1 -19 18 -20 17 -14 -7 6 -24 0 -29 -109 -83 -64 -32
-118 -56 -120 -54 -2 1 17 26 41 54 64 73 182 148 219 139 5 -1 14 -9 20 -18z
m451 -18 c0 -7 -6 -15 -12 -17 -8 -3 -13 4 -13 17 0 13 5 20 13 18 6 -3 12
-11 12 -18z m-800 -135 l-7 -70 -216 -122 c-119 -67 -218 -120 -220 -118 -3 3
9 34 27 69 45 93 143 190 291 290 l125 85 3 -32 c2 -18 1 -63 -3 -102z m814
63 c-5 -10 -14 -18 -19 -18 -4 0 -23 -12 -40 -26 -39 -34 -49 -26 -15 14 14
16 25 34 25 39 0 6 10 15 23 20 27 12 40 -2 26 -29z m51 11 c0 -5 -7 -9 -15
-9 -15 0 -20 12 -9 23 8 8 24 -1 24 -14z m66 -46 c24 -16 43 -30 44 -34 0 -3
-21 -15 -47 -28 -54 -26 -142 -38 -168 -24 -15 9 -9 12 31 22 47 12 110 40 89
40 -5 0 -39 -6 -75 -14 -36 -7 -66 -12 -68 -10 -10 10 107 74 137 75 7 0 33
-12 57 -27z m73 21 c25 -5 29 -9 20 -20 -9 -11 -16 -11 -40 2 -45 23 -38 29
20 18z m-119 -149 c30 -36 -34 -48 -87 -15 -18 11 -33 22 -33 25 0 13 108 4
120 -10z m-945 -88 c-13 -31 -30 -77 -36 -101 -10 -41 -14 -45 -57 -56 -63
-16 -130 -50 -232 -119 -143 -98 -303 -166 -372 -159 -32 3 -29 5 87 94 66 50
172 125 236 167 119 78 391 238 396 233 2 -2 -8 -28 -22 -59z m147 -175 c30
-12 -66 -103 -131 -124 -30 -10 -56 -16 -59 -13 -2 2 -1 33 3 69 6 56 9 65 28
69 36 7 141 6 159 -1z m168 -40 l45 -16 -85 -12 c-47 -6 -103 -15 -125 -19
l-40 -7 44 45 c48 50 51 50 161 9z m-374 6 c-3 -13 -6 -44 -6 -70 l0 -46 -97
-38 c-54 -21 -109 -37 -123 -36 -15 1 -31 -6 -40 -18 -9 -11 -40 -27 -70 -35
-51 -14 -56 -13 -75 5 -28 26 -40 25 -62 -6 -17 -23 -23 -25 -53 -17 l-35 10
40 13 c65 21 184 83 276 143 96 63 204 117 233 117 14 0 17 -5 12 -22z m1074
-13 c30 -36 -29 -48 -81 -16 -31 19 -31 19 -8 24 49 9 77 7 89 -8z m-76 -44
c19 -21 14 -41 -10 -41 -15 0 -94 46 -94 55 0 3 20 5 43 5 31 0 49 -6 61 -19z
m-635 -17 c-9 -8 -64 -33 -124 -54 -59 -22 -123 -49 -142 -60 -20 -12 -38 -19
-41 -16 -2 3 14 27 37 54 41 49 41 49 143 69 57 11 112 21 123 22 17 1 18 0 4
-15z m716 -18 c29 -12 55 -41 55 -60 0 -14 -75 -5 -92 11 -18 16 -24 44 -11
56 8 9 8 9 48 -7z m-94 -26 c16 0 69 -53 69 -68 0 -4 -5 -14 -10 -22 -8 -13
-13 -13 -37 0 -29 16 -82 86 -83 108 0 10 5 9 22 -2 12 -9 30 -16 39 -16z
m-913 -18 c-70 -95 -76 -99 -70 -46 4 29 11 39 36 50 42 18 50 17 34 -4z m-92
-66 c-4 -24 -13 -50 -21 -56 -8 -7 -49 -23 -90 -35 l-76 -24 7 47 c4 26 8 49
10 51 6 7 169 69 173 66 2 -2 0 -24 -3 -49z m-406 -50 c0 -2 -7 -6 -15 -10 -8
-3 -15 -1 -15 4 0 6 7 10 15 10 8 0 15 -2 15 -4z m205 -23 c-9 -39 -22 -48
-84 -62 -59 -12 -71 -7 -71 35 0 17 11 24 53 36 28 9 65 16 81 17 26 1 28 -1
21 -26z m-240 -17 c57 -3 60 -4 63 -29 3 -24 0 -27 -27 -27 -38 0 -135 36
-152 56 -11 14 -9 15 22 9 19 -3 61 -7 94 -9z m-125 -47 c78 -30 169 -51 182
-43 16 10 7 -23 -22 -85 -55 -116 -156 -250 -281 -373 -107 -105 -120 -115
-129 -97 -15 27 -83 59 -125 59 -52 0 -92 -24 -115 -70 -24 -47 -25 -79 -5
-106 14 -18 14 -17 15 14 0 47 36 111 68 123 38 15 88 3 125 -30 l31 -29 -40
-58 c-51 -74 -97 -154 -92 -160 2 -2 33 38 69 89 53 77 65 88 67 68 6 -40 -7
-71 -51 -118 -43 -47 -177 -147 -185 -139 -2 3 1 19 7 37 15 43 14 69 -3 69
-18 0 -150 -76 -166 -96 -11 -13 -15 -12 -32 3 -39 35 -81 -23 -75 -102 l5
-50 -171 -83 c-93 -45 -172 -81 -173 -79 -2 2 25 37 61 78 195 221 252 290
376 454 181 238 225 279 439 414 28 18 30 21 10 16 -43 -12 -142 -65 -206
-111 -79 -56 -115 -97 -293 -334 -80 -107 -166 -217 -190 -245 -76 -87 -184
-196 -188 -191 -6 6 198 347 291 486 93 141 202 285 301 400 105 121 304 320
330 330 23 8 62 -1 165 -41z m488 12 c-9 -25 -367 -325 -377 -315 -3 2 36 46
86 97 50 51 105 112 122 137 26 37 42 49 94 67 72 25 80 26 75 14z m-168 -48
c0 -13 -82 -111 -146 -173 -37 -36 -65 -60 -62 -55 3 6 22 39 43 74 21 35 43
82 50 104 9 30 19 44 36 48 32 9 79 11 79 2z m630 -194 c55 -12 59 -18 32 -42
-30 -28 -101 -47 -170 -47 -81 0 -73 10 33 44 69 22 74 25 35 21 -25 -2 -58
-7 -74 -11 -38 -9 -26 13 18 32 38 16 61 17 126 3z m20 -284 c29 -35 -12 -57
-59 -31 l-24 13 24 17 c29 20 43 20 59 1z m-42 -57 c18 -18 14 -38 -7 -38 -22
0 -45 25 -36 40 8 13 28 13 43 -2z m137 -32 c37 -16 48 -46 16 -46 -11 0 -42
5 -70 12 -38 9 -51 16 -51 30 0 23 54 25 105 4z m-94 -55 c27 -27 38 -51 23
-51 -18 0 -71 34 -87 55 -18 25 -18 25 8 25 16 0 38 -12 56 -29z m-1461 -220
c0 -4 -9 -31 -21 -58 -15 -38 -29 -54 -56 -67 -33 -16 -35 -16 -29 0 4 9 -12
0 -34 -20 -36 -33 -60 -45 -60 -31 0 16 42 84 67 107 27 26 111 78 126 78 4 0
7 -4 7 -9z m-206 -144 c-19 -57 -31 -66 -40 -32 -7 28 2 73 18 93 9 11 14 11
25 0 11 -12 11 -22 -3 -61z m-457 -14 c-3 -32 -13 -78 -21 -103 -11 -30 -14
-35 -11 -15 4 27 3 26 -14 -10 l-18 -40 -7 57 c-6 44 -4 64 10 90 49 96 69
103 61 21z m573 -20 c0 -11 -63 -53 -79 -53 -20 0 -2 19 37 40 43 23 42 22 42
13z m-950 -45 c28 -39 29 -42 14 -60 -10 -10 -20 -18 -24 -18 -11 0 -40 69
-40 95 0 36 16 31 50 -17z m118 30 c15 -15 16 -89 1 -122 l-12 -25 -18 37
c-21 41 -24 74 -9 103 12 22 21 24 38 7z m892 -8 c12 -7 12 -12 -4 -28 -16
-19 -102 -40 -113 -28 -6 6 76 66 91 66 6 0 18 -4 26 -10z m-210 -54 c0 -2
-42 -66 -93 -142 -50 -76 -100 -158 -111 -180 l-18 -42 -37 25 c-45 31 -103
27 -161 -11 -22 -14 -41 -26 -44 -26 -2 0 -7 12 -11 28 -3 15 -13 34 -20 42
-8 10 -11 27 -6 50 5 28 11 36 30 38 14 1 75 30 135 64 173 96 336 171 336
154z m-730 -61 c7 -8 9 -26 5 -44 -7 -32 -31 -33 -60 -1 -13 15 -14 23 -5 39
12 24 42 27 60 6z m-105 -20 c35 -34 32 -49 -7 -41 -40 8 -63 29 -55 50 9 23
34 20 62 -9z m1289 -74 c11 -17 -21 -43 -62 -51 -50 -9 -53 0 -9 34 32 26 61
33 71 17z m105 -65 c17 -20 -23 -46 -70 -46 -28 0 -38 5 -42 20 -3 12 1 24 11
30 25 14 88 12 101 -4z m-1238 -46 c32 -33 69 -115 57 -124 -2 -2 -32 -20 -67
-41 -70 -42 -72 -41 -92 30 -19 65 -17 130 5 154 28 31 55 26 97 -19z m1093
34 c24 -9 19 -33 -6 -38 -104 -21 -126 -13 -65 24 34 21 46 24 71 14z m80 -55
c26 -12 40 -35 30 -50 -10 -16 -73 -9 -122 13 l-47 23 38 6 c20 3 40 9 44 12
9 10 29 8 57 -4z m-1024 -75 c0 -22 -2 -25 -15 -14 -12 10 -13 16 -4 26 16 20
19 18 19 -12z m264 -15 c30 -35 31 -47 12 -92 -12 -29 -140 -157 -157 -157 -3
0 -9 23 -12 51 -4 28 -16 67 -27 86 l-21 35 26 34 c30 39 88 73 127 74 17 0
35 -10 52 -31z m-237 -26 c-3 -10 -5 -2 -5 17 0 19 2 27 5 18 2 -10 2 -26 0
-35z m-46 -43 c10 -6 19 -21 19 -34 0 -13 12 -69 26 -126 l26 -102 -29 -36
c-31 -38 -117 -91 -128 -80 -4 4 23 42 61 85 65 73 67 76 30 55 -21 -13 -40
-21 -42 -19 -2 2 1 19 6 38 6 18 10 50 9 69 0 29 -2 32 -9 15 -5 -11 -17 -46
-26 -79 -11 -41 -19 -55 -25 -45 -5 8 -9 22 -9 31 0 9 -5 29 -12 45 -11 25
-12 19 -19 -63 -4 -50 -14 -104 -22 -120 l-16 -29 -22 50 c-27 59 -37 178 -20
235 22 74 78 119 149 120 18 0 42 -5 53 -10z m-266 -30 l30 -20 0 -132 c0
-109 3 -139 18 -165 26 -49 7 -40 -52 22 -87 92 -122 204 -86 275 23 44 46 49
90 20z m347 -41 c18 -35 22 -89 9 -123 -6 -15 -11 -6 -23 40 -26 95 -30 126
-15 122 6 -2 20 -20 29 -39z m193 -86 c-14 -108 -16 -118 -26 -101 -5 9 -25
26 -44 38 l-35 22 52 44 c29 24 54 44 56 44 2 0 1 -21 -3 -47z m-97 -87 c67
-35 79 -88 27 -122 -31 -21 -43 -12 -74 55 -35 73 -16 100 47 67z m-63 -92
c15 -25 25 -48 22 -50 -7 -8 -120 -24 -162 -23 l-40 0 46 24 c25 13 59 40 75
59 16 19 30 35 31 35 0 1 13 -20 28 -45z m135 -91 c0 -72 -12 -80 -39 -27 -12
26 -21 47 -19 48 2 0 12 6 23 13 32 19 35 16 35 -34z m-48 -53 c26 -49 28 -62
24 -125 -9 -127 -124 -589 -126 -505 0 8 7 56 15 105 37 225 6 395 -71 395
-28 0 -37 -13 -29 -40 7 -22 35 -26 52 -9 31 31 54 -117 41 -255 -4 -50 -12
-113 -16 -141 l-8 -50 -7 40 c-3 22 -9 66 -12 97 -13 114 -85 208 -161 208
-27 0 -34 -4 -34 -19 0 -52 36 -69 64 -29 l15 21 34 -34 c43 -43 54 -81 68
-234 l11 -119 -23 -16 c-62 -40 -153 -127 -193 -183 -72 -103 -95 -175 -112
-355 -8 -86 -24 -190 -34 -230 -20 -73 -61 -165 -79 -176 -37 -23 -4 482 55
844 33 200 162 781 177 796 3 3 27 -17 54 -44 51 -54 94 -72 118 -52 25 21 17
58 -21 100 -20 22 -35 41 -33 41 18 7 159 27 178 25 19 -1 31 -13 53 -56z
m-397 34 c14 -6 13 -9 -6 -30 -22 -24 -72 -33 -83 -15 -8 13 35 47 66 50 3 1
14 -2 23 -5z m135 -29 c33 -17 60 -52 60 -78 0 -22 -22 -12 -64 29 -56 57 -55
79 4 49z m837 -142 c-28 -52 -129 -144 -144 -130 -3 4 17 38 46 77 57 78 44
82 -19 6 -42 -51 -51 -47 -23 11 16 35 65 72 118 90 26 8 30 7 33 -8 2 -10 -3
-30 -11 -46z m-1501 -69 c13 -79 18 -178 18 -359 1 -248 2 -251 29 -322 32
-83 82 -175 134 -245 19 -27 33 -52 30 -55 -9 -8 -62 15 -105 47 -66 48 -137
209 -167 380 -22 127 -20 386 5 534 19 112 27 142 36 134 2 -2 11 -53 20 -114z
m114 -67 c68 -171 85 -313 60 -524 -7 -62 -5 -107 5 -179 8 -54 13 -99 11
-102 -7 -6 -56 75 -87 144 -52 114 -61 179 -54 374 5 147 3 196 -14 309 -11
74 -17 139 -14 144 8 13 55 -72 93 -166z m664 112 c-3 -5 -10 -7 -15 -3 -5 3
-7 10 -3 15 3 5 10 7 15 3 5 -3 7 -10 3 -15z m-141 -162 c-3 -5 -10 -4 -15 1
-6 6 -7 16 -3 22 6 9 9 9 16 -1 4 -7 5 -17 2 -22z m1025 -10 c2 -17 -1 -27
-10 -27 -7 0 -23 -3 -35 -6 -19 -5 -23 -2 -23 14 0 22 37 55 55 49 5 -2 11
-16 13 -30z m162 5 c0 -15 -33 -38 -79 -56 -36 -14 -46 -15 -52 -4 -10 15 4
31 46 52 32 17 85 21 85 8z m-150 -56 c0 -20 -16 -36 -35 -36 -26 0 -40 14
-30 30 6 9 65 15 65 6z m87 -47 c22 -8 24 -12 13 -19 -19 -12 -91 -13 -109 -1
-11 7 -10 11 5 20 24 13 55 14 91 0z m-1019 -459 c-39 -77 -83 -199 -153 -428
-34 -114 -72 -187 -123 -241 -36 -39 -42 -42 -37 -21 43 156 55 216 65 319 22
240 71 346 219 468 l66 54 3 -33 c2 -24 -10 -58 -40 -118z m92 -15 c-14 -66
-30 -110 -46 -130 -21 -26 -24 -27 -24 -10 0 45 41 207 62 247 21 40 23 41 26
18 2 -14 -6 -70 -18 -125z m-91 -105 c-5 -30 -11 -105 -12 -167 l-3 -112 -56
-115 c-70 -143 -126 -203 -217 -231 -19 -6 -13 5 32 60 71 86 97 141 147 315
23 78 49 163 60 188 35 89 51 124 55 121 1 -2 -1 -29 -6 -59z m35 -119 c-18
-67 -41 -96 -30 -40 8 40 37 111 43 105 3 -2 -3 -32 -13 -65z m-66 -468 c3
-46 0 -75 -12 -108 -25 -65 -40 -69 -33 -9 3 27 2 63 -1 79 -5 25 -8 16 -17
-45 -11 -74 -12 -75 -25 -45 -7 17 -13 57 -13 90 0 51 5 68 34 114 l34 54 13
-34 c8 -19 17 -62 20 -96z m9203 -44 c-50 -157 -88 -314 -131 -536 -52 -272
-64 -311 -96 -323 -13 -5 -24 -14 -24 -20 0 -17 -26 -11 -45 10 -17 19 -16 20
13 45 53 45 65 127 26 183 -8 12 -22 22 -30 22 -13 0 -13 -3 0 -22 25 -35 21
-111 -7 -144 -15 -17 -30 -25 -39 -21 -21 7 -35 97 -43 267 l-7 135 30 45 c16
25 85 115 153 200 69 85 147 184 174 220 61 79 66 66 26 -61z m44 -141 c-39
-466 -98 -789 -199 -1085 -86 -250 -78 -238 -168 -249 l-53 -6 -24 56 c-12 30
-41 84 -63 118 -23 35 -52 87 -66 116 -28 62 -26 108 9 267 28 124 25 118 49
103 16 -11 20 -23 20 -74 0 -108 45 -192 97 -182 12 2 18 12 18 28 0 22 -4 25
-35 25 -31 0 -36 4 -47 35 -6 19 -12 59 -12 88 l-1 52 43 0 c34 -1 48 -7 77
-35 19 -19 40 -35 46 -35 27 0 23 -22 -17 -87 -23 -37 -50 -84 -61 -103 -37
-67 64 53 110 130 57 95 82 177 126 410 21 107 46 233 57 280 26 115 102 365
107 351 2 -6 -4 -98 -13 -203z m-9365 167 c0 -8 -4 -15 -9 -15 -13 0 -22 16
-14 24 11 11 23 6 23 -9z m-23 -33 c13 -8 45 -103 38 -110 -15 -15 -65 61 -65
98 0 21 7 25 27 12z m218 -2 c13 -21 -50 -100 -79 -100 -8 0 27 95 38 102 15
11 34 10 41 -2z m-265 -22 c0 -35 35 -84 78 -113 l40 -26 5 -172 c3 -112 10
-192 21 -229 16 -57 16 -58 -10 -95 -21 -31 -25 -46 -21 -82 5 -48 31 -90 67
-108 35 -18 45 -5 16 22 -38 36 -57 89 -44 125 5 17 14 30 18 28 4 -2 35 -56
68 -120 33 -64 80 -150 106 -191 38 -61 57 -107 43 -107 -1 0 -38 15 -82 34
-112 47 -186 88 -200 111 -7 11 -23 61 -36 110 -19 73 -24 116 -24 225 0 74 3
164 7 200 l7 65 -20 -60 c-32 -95 -37 -275 -10 -394 12 -51 19 -96 17 -99 -7
-7 -89 82 -124 134 -20 29 -34 74 -51 158 -23 109 -23 119 -8 128 25 13 21 55
-7 73 -20 14 -25 28 -35 116 -16 146 -15 166 13 192 25 23 145 97 158 97 5 0
8 -10 8 -22z m701 -21 c-20 -52 -91 -74 -91 -29 0 22 25 47 60 60 32 13 43 2
31 -31z m-123 6 c2 -13 -9 -34 -28 -55 l-32 -33 5 43 c8 65 47 98 55 45z m158
-75 c15 -24 -85 -78 -146 -78 -22 0 50 77 82 89 25 9 55 4 64 -11z m-130 1 c7
-12 -72 -97 -82 -87 -15 16 36 98 61 98 8 0 17 -5 21 -11z m-865 -264 c20 -44
27 -83 9 -55 -17 26 -11 -6 10 -62 23 -61 23 -58 11 -58 -5 0 -28 30 -51 68
-38 59 -43 76 -47 137 l-4 70 26 -30 c15 -16 35 -48 46 -70z m123 -76 c-10
-16 -24 -9 -24 12 0 18 2 19 15 9 8 -7 12 -16 9 -21z m-35 -129 c-2 -30 -27
66 -27 100 0 28 3 23 14 -25 7 -33 13 -67 13 -75z m9099 -19 c-21 -76 -34
-109 -41 -102 -7 7 -7 27 2 63 12 55 58 164 66 156 2 -2 -10 -55 -27 -117z
m-9359 51 c21 -31 39 -87 25 -80 -5 2 -23 10 -40 17 -31 12 -54 46 -54 80 0
40 34 32 69 -17z m9387 -132 c-16 -100 -20 -110 -38 -92 -9 9 -5 36 17 114 34
119 42 110 21 -22z m-9124 28 c14 -29 30 -70 33 -90 7 -36 7 -37 -21 -29 -29
7 -31 12 -54 111 -7 30 -15 61 -18 69 -4 10 -1 11 14 3 10 -6 31 -34 46 -64z
m-370 47 c30 -12 35 -18 31 -40 -3 -14 -10 -25 -15 -25 -24 0 -98 54 -98 72 0
13 44 9 82 -7z m9538 -38 c0 -23 6 -70 14 -104 l13 -63 -28 0 c-15 0 -31 5
-34 11 -10 15 16 209 27 203 4 -3 8 -24 8 -47z m-8510 33 c0 -5 -2 -10 -4 -10
-3 0 -8 5 -11 10 -3 6 -1 10 4 10 6 0 11 -4 11 -10z m-176 -24 c18 -8 45 -29
59 -48 25 -32 26 -40 29 -180 1 -81 0 -149 -3 -153 -16 -15 -189 309 -189 354
0 37 50 49 104 27z m-735 -22 c23 -29 21 -39 -7 -46 -46 -12 -80 30 -50 60 18
18 35 14 57 -14z m-59 -69 c10 -12 5 -17 -25 -30 -45 -18 -40 -18 -60 1 -12
12 -13 19 -4 30 15 18 73 18 89 -1z m8600 -16 l33 -12 -27 -14 c-27 -14 -91
-9 -101 8 -3 4 9 13 27 18 18 5 33 10 34 10 1 1 16 -4 34 -10z m-8366 -20 c26
-12 36 -35 36 -82 0 -46 39 -225 67 -312 50 -154 235 -480 312 -549 39 -35 21
-38 -36 -6 -222 125 -442 356 -549 575 -37 77 -46 107 -51 167 -6 87 7 146 43
182 33 33 74 34 110 3 35 -30 43 -101 20 -180 -21 -71 -21 -83 0 -67 49 41 64
180 26 243 -23 39 -18 44 22 26z m8436 -34 c0 -16 -42 -31 -59 -21 -6 4 -8 13
-4 21 7 20 63 20 63 0z m-8314 -8 c1 -1 22 -71 48 -155 49 -160 113 -340 190
-527 24 -60 48 -123 52 -140 7 -27 6 -29 -9 -17 -23 19 -162 249 -213 352 -64
129 -106 279 -119 424 l-8 79 29 -7 c16 -4 30 -8 30 -9z m8230 -8 c15 -25 -73
-71 -116 -59 -23 6 -22 8 30 38 59 34 75 38 86 21z m-8109 -76 l70 -68 36
-129 c41 -144 69 -270 92 -425 8 -58 15 -107 15 -110 -1 -15 -24 39 -90 210
-87 224 -111 291 -156 439 -19 63 -37 123 -40 133 -3 9 -3 17 -1 17 3 0 36
-30 74 -67z m923 -31 c0 -59 -26 -162 -41 -162 -5 0 -9 41 -9 92 0 105 -8 110
-19 11 -7 -66 -8 -67 -20 -38 -16 39 -8 78 30 144 31 54 31 54 45 30 7 -13 13
-48 14 -77z m7280 70 c0 -25 -19 -42 -47 -42 -18 0 -23 6 -23 24 0 24 13 32
53 35 10 1 17 -6 17 -17z m-6900 -14 c0 -7 -14 -36 -30 -65 -21 -36 -35 -51
-45 -47 -18 7 -19 27 -4 57 27 51 79 88 79 55z m7139 -80 c-7 -13 -32 -50 -57
-82 -53 -69 -30 -62 28 8 26 32 40 42 40 31 0 -38 -41 -84 -103 -115 -59 -30
-62 -30 -65 -11 -6 40 63 130 132 172 39 24 39 24 25 -3z m-7269 -2 c9 -12 7
-21 -11 -45 -13 -17 -24 -31 -26 -31 -12 0 -22 43 -13 64 11 29 31 34 50 12z
m145 -45 c-7 -23 -58 -54 -81 -49 -22 5 11 47 50 63 36 16 40 14 31 -14z
m-105 -15 c0 -17 -35 -48 -43 -39 -13 12 -7 42 10 52 20 11 33 6 33 -13z
m-1037 -15 c28 -16 87 -43 130 -61 52 -22 77 -37 77 -48 -1 -39 -40 -166 -54
-174 -17 -10 -22 -43 -7 -52 9 -6 -13 -120 -29 -148 -6 -10 -10 -33 -10 -52 0
-46 -11 -96 -21 -96 -8 0 -15 32 -55 255 -15 83 -41 207 -59 278 -18 70 -31
127 -29 127 3 0 28 -13 57 -29z m8867 -21 c0 -5 -7 -10 -16 -10 -8 0 -12 5 -9
10 3 6 10 10 16 10 5 0 9 -4 9 -10z m-8594 -117 c23 -23 87 -161 157 -338 75
-188 80 -221 15 -100 -92 172 -140 235 -217 285 l-23 16 17 77 c9 42 21 77 25
77 5 0 16 -8 26 -17z m8520 -261 c27 -59 29 -57 -60 -66 -32 -4 -67 -11 -78
-17 -11 -6 -22 -9 -24 -6 -3 3 0 54 6 113 6 60 14 133 16 162 l6 54 55 -94
c31 -51 67 -117 79 -146z m-8513 36 c41 -42 83 -101 125 -174 34 -61 62 -114
62 -118 0 -4 -35 29 -78 73 -82 84 -109 101 -183 110 l-46 6 19 83 c11 45 24
82 30 82 5 0 38 -28 71 -62z m8537 -138 l25 -7 -30 -8 c-34 -9 -124 -53 -172
-86 -36 -23 -39 -19 -27 39 7 32 26 44 99 61 49 11 72 11 105 1z m93 -72 c-25
-50 -27 -52 -34 -28 -12 42 -10 49 19 64 42 24 44 20 15 -36z m-93 26 c0 -3
-30 -39 -67 -79 -38 -40 -95 -117 -127 -171 -33 -55 -78 -123 -100 -153 -40
-53 -141 -139 -152 -128 -3 3 17 36 44 74 69 97 139 219 158 275 19 58 80 115
168 158 63 30 76 34 76 24z m-235 -53 c-7 -34 -47 -71 -109 -103 -52 -26 -99
-40 -90 -27 19 32 193 173 202 165 2 -3 1 -18 -3 -35z m-54 -110 c-85 -119
-461 -442 -461 -395 0 32 269 344 297 344 24 0 107 32 142 55 46 30 46 30 22
-4z m-8137 -12 c39 -18 58 -72 64 -177 l5 -93 -49 31 c-27 17 -66 33 -87 37
-45 7 -57 28 -57 104 0 42 5 55 29 80 32 31 55 36 95 18z m8123 -85 c-19 -38
-68 -116 -109 -172 l-74 -104 -77 -1 c-76 -2 -78 -2 -55 16 54 41 208 188 273
259 38 42 71 75 73 73 2 -1 -12 -34 -31 -71z m-557 21 l44 -23 -72 -7 c-62 -6
-76 -5 -93 10 -60 55 24 69 121 20z m896 -40 c-9 -88 -14 -101 -32 -78 -7 10
-14 26 -14 35 0 18 40 108 48 108 3 0 2 -29 -2 -65z m-816 -5 c0 -13 -60 -50
-81 -50 -25 0 -42 25 -27 38 23 19 108 28 108 12z m-138 -23 c12 -19 10 -23
-17 -35 -34 -16 -67 -15 -90 2 -18 13 -17 15 15 35 36 22 77 21 92 -2z m-7694
-47 c17 -11 32 -22 32 -24 0 -3 -13 -14 -30 -26 l-29 -21 -16 32 c-16 29 -14
59 2 59 4 0 23 -9 41 -20z m7792 1 c0 -12 -46 -48 -72 -57 -11 -3 -24 -2 -29
3 -15 15 19 52 54 56 17 2 35 5 40 5 4 1 7 -2 7 -7z m-7605 -89 c80 -56 121
-166 95 -261 -6 -23 -14 -41 -17 -38 -8 9 -32 129 -33 165 0 20 -4 31 -10 27
-5 -3 -10 -19 -10 -36 0 -16 -3 -29 -7 -29 -5 0 -28 20 -52 45 -24 25 -46 43
-49 40 -3 -2 13 -28 35 -57 47 -64 59 -83 47 -76 -36 19 -107 48 -110 45 -2
-2 23 -28 57 -57 54 -47 99 -102 99 -122 0 -9 -89 16 -128 36 -49 25 -111 85
-133 127 -26 52 -25 119 3 155 27 35 42 45 88 61 45 15 75 9 125 -25z m8375
-18 c0 -52 -1 -55 -22 -52 -31 4 -39 48 -9 48 22 0 29 16 10 22 -5 2 -7 11 -4
21 14 34 25 16 25 -39z m-8657 25 c28 -13 29 -15 22 -69 -11 -96 -14 -101 -44
-93 -42 10 -114 49 -139 76 -31 32 -27 76 8 95 29 15 111 10 153 -9z m9001 -1
c30 -13 42 -43 26 -63 -30 -37 -77 0 -64 50 7 29 6 28 38 13z m114 -9 c34 -13
27 -55 -8 -51 -29 3 -45 18 -55 50 -7 26 -3 26 63 1z m-8592 -14 c21 -32 11
-73 -42 -161 -42 -71 -89 -130 -79 -99 16 50 16 121 0 165 -30 80 -30 84 7
102 51 26 94 23 114 -7z m8233 -64 c0 -20 -4 -45 -8 -56 l-8 -20 -6 20 c-6 21
-10 67 -8 99 2 36 31 -4 30 -43z m210 -59 c-11 -49 -27 -62 -45 -38 -17 24
-18 71 -3 115 l11 32 23 -37 c18 -29 21 -44 14 -72z m106 38 c8 -16 15 -43 15
-60 0 -28 -2 -30 -20 -20 -12 6 -28 26 -37 45 -13 28 -14 37 -3 50 18 22 27
19 45 -15z m-255 -66 c13 -60 0 -206 -26 -307 -41 -161 -120 -328 -225 -482
-88 -128 -106 -151 -114 -144 -8 9 81 271 118 344 16 33 42 78 58 101 66 96
110 238 114 369 1 44 11 108 21 143 16 53 21 60 31 46 7 -9 17 -41 23 -70z
m-694 32 c-47 -39 -125 -46 -94 -9 17 21 47 32 88 32 l35 0 -29 -23z m584 -56
c0 -19 -9 -46 -19 -59 l-19 -24 -7 21 c-6 19 -1 42 21 112 8 24 24 -9 24 -50z
m-713 25 c-4 -8 -18 -15 -34 -15 l-28 0 30 20 c32 21 41 20 32 -5z m207 -17
c-13 -44 -42 -93 -71 -119 -30 -28 -123 -83 -129 -76 -6 5 20 75 44 124 24 47
38 59 76 69 l29 7 -23 -31 c-37 -50 -16 -48 26 2 43 50 59 58 48 24z m46 -30
c0 -38 -17 -78 -34 -78 -23 0 -24 22 -3 78 21 55 37 55 37 0z m-8154 -57 c52
-49 92 -76 136 -94 l63 -25 -49 -7 c-71 -11 -178 1 -224 24 -92 47 -117 121
-52 153 19 10 39 18 44 18 4 0 41 -31 82 -69z m1234 -43 c0 -40 -17 -68 -40
-68 -16 0 -20 7 -20 38 0 48 26 88 46 71 8 -6 14 -25 14 -41z m7377 -20 c-7
-99 -46 -213 -101 -302 -62 -99 -96 -177 -140 -318 -20 -64 -41 -120 -46 -123
-13 -8 -13 211 0 293 19 117 58 214 143 359 67 113 85 138 93 125 9 -14 13
-12 30 11 10 14 21 27 23 27 2 0 1 -33 -2 -72z m-8148 3 c31 -20 -76 -49 -119
-33 l-25 10 35 16 c39 17 88 20 109 7z m847 -15 c8 -20 -29 -86 -67 -121 -25
-24 -30 -26 -25 -10 5 11 10 40 12 65 3 24 12 52 21 62 19 21 51 24 59 4z
m-178 -18 c14 -14 16 -67 3 -87 -7 -11 -13 -7 -25 17 -29 56 -14 106 22 70z
m75 -52 c3 -8 1 -32 -4 -53 -20 -78 -25 -80 -39 -17 -5 20 -5 47 1 60 9 27 34
32 42 10z m-933 -35 c0 -30 -6 -44 -22 -56 -22 -15 -23 -15 -26 15 -3 32 20
80 38 80 6 0 10 -18 10 -39z m477 -54 c36 -33 76 -118 71 -150 -2 -16 -10 -9
-41 37 -48 73 -60 66 -18 -10 18 -31 31 -58 29 -60 -10 -9 -77 51 -98 87 -23
41 -50 129 -50 163 0 16 4 15 38 -9 20 -16 51 -41 69 -58z m116 -28 c11 -18 0
-109 -13 -109 -4 0 -15 19 -23 43 -22 65 5 115 36 66z m5630 -50 c32 -35 30
-44 -7 -35 -25 6 -76 53 -76 69 0 19 56 -5 83 -34z m-4289 -41 c12 -45 7 -118
-8 -118 -20 0 -39 65 -32 106 8 39 31 45 40 12z m4202 11 c34 -9 44 -16 44
-32 0 -18 -4 -19 -47 -13 -48 6 -93 29 -93 46 0 13 41 13 96 -1z m-5306 -184
c20 -43 36 -96 41 -135 4 -36 10 -80 14 -97 10 -45 -3 -42 -62 12 -43 38 -52
52 -62 101 -12 62 -15 224 -4 264 6 22 8 19 23 -25 10 -28 32 -81 50 -120z
m-364 120 l46 -35 -31 0 c-54 0 -102 34 -85 61 9 15 22 10 70 -26z m5788 22
c16 -12 16 -14 3 -26 -19 -15 -57 1 -57 24 0 19 30 19 54 2z m-5376 -118 l-4
-44 -25 55 c-15 30 -30 66 -34 80 -6 23 -4 22 30 -11 33 -32 36 -40 33 -80z
m1136 54 c-2 -31 -30 -83 -45 -83 -15 0 -10 61 8 91 21 36 38 32 37 -8z m4228
11 c16 -10 -14 -34 -44 -34 -32 0 -47 22 -28 45 11 13 39 9 72 -11z m-4368
-40 c11 -4 16 -19 16 -46 0 -33 -3 -39 -16 -34 -9 3 -18 6 -20 6 -3 0 -9 12
-14 26 -7 19 -7 31 1 40 13 16 12 16 33 8z m-819 -205 c65 -92 172 -276 164
-284 -2 -2 -31 9 -64 24 -54 25 -66 37 -121 117 -34 49 -80 123 -103 164 -39
69 -42 78 -35 124 l6 50 42 -49 c22 -26 73 -92 111 -146z m885 150 c0 -18 -5
-29 -14 -29 -20 0 -30 38 -16 55 17 21 30 9 30 -26z m5500 -31 c11 -24 20 -56
20 -72 0 -25 -2 -27 -16 -15 -24 20 -44 65 -44 99 0 43 18 37 40 -12z m-5816
-9 c35 -31 78 -108 91 -164 6 -29 6 -29 -14 -11 -11 10 -37 43 -57 72 -49 71
-57 61 -11 -13 39 -65 40 -79 1 -42 -36 34 -50 65 -58 132 -9 67 -2 70 48 26z
m5674 -73 c110 -38 117 -45 47 -46 -62 0 -124 -22 -172 -60 -29 -22 -39 -18
-74 32 l-21 29 28 41 c28 39 30 40 74 35 26 -3 79 -17 118 -31z m-7360 -7 c97
-26 178 -59 251 -103 46 -29 58 -40 54 -56 -8 -31 119 -153 182 -174 28 -10
66 -26 85 -37 19 -11 59 -31 88 -46 28 -15 52 -31 52 -36 0 -11 -68 -2 -169
24 -121 30 -207 80 -323 185 -74 67 -142 117 -241 175 -76 45 -140 86 -144 92
-8 13 64 2 165 -24z m-68 -74 c145 -86 169 -104 255 -186 39 -36 99 -85 134
-108 54 -35 60 -41 38 -41 -14 0 -34 -9 -44 -19 -18 -19 -20 -19 -111 42 -123
83 -228 174 -323 279 -68 76 -98 119 -71 105 4 -2 59 -35 122 -72z m1107 -61
c35 -52 60 -94 57 -94 -13 0 -81 40 -97 58 -19 20 -47 111 -46 147 0 19 1 19
12 1 7 -10 40 -61 74 -112z m5398 114 c-11 -7 -51 -22 -90 -34 -41 -13 -60
-23 -45 -23 14 0 47 6 74 14 57 17 69 14 33 -10 -50 -32 -125 -36 -196 -10
-20 8 5 34 54 56 47 22 206 28 170 7z m1245 -23 c28 -34 -35 -49 -79 -19 -18
13 -20 18 -10 25 22 14 75 10 89 -6z m-620 -69 c-17 -25 -35 -46 -40 -46 -4 0
-17 -3 -27 -6 -10 -4 6 18 36 49 30 31 57 55 59 52 2 -2 -10 -24 -28 -49z
m400 44 c11 -7 1 -15 -43 -35 -32 -14 -63 -25 -70 -25 -7 -1 -23 -7 -37 -16
-25 -15 -25 -15 13 -11 20 1 37 1 37 -3 0 -3 -14 -25 -30 -49 -47 -69 -34 -72
27 -6 43 47 54 54 49 35 -12 -47 -19 -100 -12 -100 3 0 17 24 32 53 33 66 69
114 96 128 21 11 21 10 15 -55 -10 -106 -62 -203 -134 -247 -27 -17 -45 -20
-89 -17 -45 4 -61 10 -89 38 -62 60 -63 128 -4 214 49 73 188 128 239 96z
m-322 -31 c16 -25 16 -25 -25 -34 -37 -7 -40 0 -17 33 19 27 26 28 42 1z
m-6066 -145 c67 -34 99 -68 142 -152 20 -39 21 -38 -19 -46 -28 -6 -39 3 -146
106 -105 102 -179 188 -179 209 0 4 30 -13 67 -38 37 -25 98 -60 135 -79z
m6545 3 c16 -63 12 -141 -9 -181 -19 -38 -61 -76 -83 -76 -23 0 -44 19 -64 57
-10 19 -6 30 22 75 57 89 76 134 84 195 l6 58 14 -34 c8 -18 21 -61 30 -94z
m-457 25 c-11 -34 -17 -75 -14 -90 5 -25 2 -30 -33 -44 -62 -27 -90 -30 -97
-12 -12 31 -5 100 13 140 18 40 23 43 83 56 34 8 64 14 65 13 1 0 -7 -29 -17
-63z m-6736 -23 c42 -40 75 -74 72 -76 -15 -15 -166 110 -166 138 0 20 21 6
94 -62z m6576 7 c-5 -15 -10 -52 -10 -82 0 -60 -16 -72 -44 -32 -32 45 -16
107 32 132 33 17 35 16 22 -18z m-6495 -24 c-3 -3 -16 5 -28 17 l-22 23 28
-17 c15 -10 25 -20 22 -23z m875 -94 c0 -21 -56 24 -67 53 l-13 33 40 -39 c22
-22 40 -43 40 -47z m-127 22 c33 -15 48 -28 56 -52 9 -24 8 -34 -1 -40 -28
-17 -46 -6 -81 52 -19 33 -32 60 -27 60 4 0 28 -9 53 -20z m-498 -83 c17 -9
27 -16 23 -17 -17 -1 -115 42 -138 60 -23 19 -20 18 30 -3 30 -13 69 -31 85
-40z m3318 43 c41 -33 71 -80 59 -92 -15 -15 -57 14 -82 55 -34 56 -23 73 23
37z m115 -23 c7 -15 12 -44 10 -65 l-3 -37 -22 36 c-25 40 -32 103 -10 97 6
-3 18 -17 25 -31z m-2795 6 c27 -8 20 -23 -12 -23 -21 0 -30 6 -34 21 -4 16
-2 19 11 14 9 -4 25 -10 35 -12z m5804 -15 l23 -22 -22 -23 c-44 -47 -74 -19
-46 42 14 30 16 31 45 3z m-130 -14 c-3 -3 -12 -4 -19 -1 -8 3 -5 6 6 6 11 1
17 -2 13 -5z m-5547 -29 c123 -63 440 -260 440 -275 0 -4 -34 10 -75 32 -177
92 -300 128 -373 109 -51 -14 -72 -45 -48 -69 21 -22 51 -4 51 29 0 23 3 24
58 22 33 -1 75 -7 95 -14 46 -15 273 -121 269 -126 -2 -1 -41 7 -87 18 -107
27 -184 22 -241 -16 -65 -42 -79 -105 -24 -105 30 0 43 25 27 51 -10 15 -7 21
15 38 36 29 56 26 76 -9 30 -51 127 -149 193 -196 35 -25 149 -83 256 -130
106 -47 236 -104 288 -128 103 -47 352 -186 333 -186 -42 0 -509 156 -708 237
-246 99 -588 283 -697 374 l-31 25 14 110 c7 60 14 135 13 166 0 50 2 58 20
61 52 10 90 5 136 -18z m-1081 -22 l42 -28 -28 -5 c-34 -7 -123 27 -123 46 0
24 63 16 109 -13z m106 1 c28 -8 61 -14 75 -14 54 -1 49 -16 -13 -36 l-62 -21
-47 49 c-36 37 -42 47 -25 42 12 -4 45 -13 72 -20z m784 -31 c0 -32 -7 -74
-14 -93 -7 -19 -14 -32 -14 -28 -1 3 -8 42 -16 85 -8 43 -15 79 -15 80 0 2 32
10 48 12 8 1 12 -16 11 -56z m5531 47 c0 -5 -4 -10 -10 -10 -5 0 -10 5 -10 10
0 6 5 10 10 10 6 0 10 -4 10 -10z m552 -40 c-8 -133 -94 -216 -142 -137 -24
38 -28 148 -7 165 11 10 135 21 146 14 3 -1 4 -20 3 -42z m-1775 8 c30 -33 73
-104 56 -96 -4 2 -26 12 -48 22 -56 25 -75 45 -75 78 0 39 28 37 67 -4z m976
-10 c-2 -24 -6 -49 -9 -55 -3 -13 -74 -19 -74 -7 0 10 73 104 81 104 4 0 5
-19 2 -42z m-5364 10 c14 -37 23 -108 14 -108 -4 0 -25 26 -45 58 -37 56 -37
57 -15 64 35 10 37 9 46 -14z m5311 15 c-1 -5 -15 -24 -33 -45 -30 -34 -36
-36 -109 -43 -43 -4 -78 -5 -78 -2 0 2 37 19 83 37 45 18 91 39 102 46 22 16
35 18 35 7z m-5386 -60 c46 -62 89 -148 84 -167 -3 -14 -118 72 -228 172 l-45
41 77 1 78 0 34 -47z m3007 26 c8 -16 8 -24 -1 -33 -9 -8 -16 -5 -31 13 -10
12 -16 27 -13 32 9 16 33 10 45 -12z m-3381 2 c23 -6 22 -8 -25 -31 -35 -17
-72 -26 -123 -28 -107 -6 -108 10 -5 40 94 27 114 30 153 19z m3333 -30 c19
-32 11 -41 -31 -33 -26 5 -37 24 -28 47 9 25 40 17 59 -14z m1440 2 c17 -16
23 -48 10 -56 -14 -9 -78 23 -92 44 -11 18 -11 23 1 30 17 12 58 2 81 -18z
m-5175 -47 c9 -20 8 -25 -4 -30 -24 -9 -102 -7 -108 3 -8 12 16 30 51 41 44
13 49 12 61 -14z m69 13 c27 -10 27 -11 9 -24 -22 -16 -56 -4 -56 20 0 18 9
19 47 4z m5214 -31 c48 -27 49 -38 3 -38 -45 0 -74 15 -74 40 0 26 23 25 71
-2z m1232 1 c-11 -11 -295 -130 -300 -125 -2 1 0 30 3 64 l7 61 96 4 c53 1
121 4 151 5 38 1 51 -1 43 -9z m-463 -8 c0 -4 -40 -47 -90 -95 l-89 -86 -63 0
c-75 0 -121 11 -211 52 -64 30 -66 32 -51 49 32 35 135 64 299 83 64 7 205 6
205 -3z m146 -48 c-4 -32 -9 -65 -12 -73 -2 -9 -70 -48 -152 -88 -81 -39 -199
-98 -262 -131 -107 -56 -232 -100 -322 -114 -32 -5 -38 -3 -38 12 0 13 21 25
83 45 253 85 340 139 497 304 l95 100 59 1 58 1 -6 -57z m-5110 10 c-10 -10
-19 5 -10 18 6 11 8 11 12 0 2 -7 1 -15 -2 -18z m-1006 11 c0 -14 -35 -64 -49
-69 -8 -3 -21 1 -30 9 -13 14 -12 18 9 41 21 22 70 35 70 19z m5143 -11 l32
-17 -30 -7 c-47 -11 -60 -10 -80 4 -44 33 22 50 78 20z m1356 -106 c-69 -192
-174 -360 -319 -510 -108 -113 -117 -118 -147 -83 -20 23 -23 38 -23 105 0
124 3 130 79 181 112 74 322 266 391 358 25 33 46 54 48 47 2 -6 -11 -51 -29
-98z m-93 94 c-7 -10 -290 -199 -310 -207 -10 -4 -9 8 4 47 l18 52 144 58
c162 66 151 62 144 50z m-3782 -43 c9 -12 16 -32 16 -44 0 -22 -24 -39 -41
-28 -19 12 -40 67 -35 90 6 21 10 23 26 14 10 -6 26 -20 34 -32z m86 -4 c8
-22 9 -56 5 -90 l-6 -53 -30 55 c-31 60 -36 93 -17 112 21 21 36 13 48 -24z
m3602 -124 c-79 -76 -177 -161 -218 -190 l-74 -51 0 43 c0 30 7 51 23 69 36
43 396 284 407 272 3 -3 -59 -67 -138 -143z m-4594 122 c16 -10 142 -205 137
-211 -9 -8 -305 167 -305 181 0 28 134 51 168 30z m3882 -83 c51 -15 52 -37 5
-84 -42 -42 -75 -52 -116 -35 -60 25 -93 102 -69 159 l12 29 64 -28 c35 -16
82 -35 104 -41z m-4289 51 c30 -5 81 -17 115 -27 l61 -17 0 -40 c0 -23 7 -55
16 -72 30 -58 131 -84 177 -46 22 18 22 18 -32 18 -85 -1 -128 33 -128 101 0
43 28 34 270 -93 52 -27 135 -63 183 -79 l88 -30 115 -140 c62 -77 131 -160
151 -184 36 -42 37 -44 13 -38 -14 3 -61 27 -105 52 -115 66 -354 182 -551
268 -94 41 -200 94 -235 117 -61 41 -229 196 -229 212 0 11 26 10 91 -2z
m2232 -15 c29 -13 66 -36 82 -49 26 -22 27 -25 10 -25 -11 -1 -51 10 -89 24
-39 13 -72 23 -74 20 -5 -5 44 -30 91 -45 55 -17 33 -35 -24 -20 -42 11 -129
86 -129 110 0 19 81 10 133 -15z m-1619 -117 c60 -60 107 -111 104 -113 -7 -7
-71 13 -105 34 -29 18 -73 76 -133 175 l-23 38 24 -12 c13 -7 73 -62 133 -122z
m657 72 c9 0 39 -59 39 -75 0 -12 -78 35 -84 50 -8 22 2 38 21 31 8 -3 19 -6
24 -6z m102 -43 c11 -26 17 -51 13 -54 -8 -8 -64 45 -72 69 -3 10 -2 23 1 28
14 22 39 3 58 -43z m-1563 23 c0 -5 -7 -10 -15 -10 -8 0 -15 5 -15 10 0 6 7
10 15 10 8 0 15 -4 15 -10z m4630 2 c0 -7 -94 -72 -105 -72 -3 0 -1 9 6 21 6
12 9 30 6 40 -5 17 1 19 44 19 27 0 49 -3 49 -8z m-532 -139 c51 -24 48 -33
-11 -33 -39 0 -58 5 -70 18 -13 14 -14 21 -5 30 13 13 33 9 86 -15z m42 -62
c0 -4 -21 -14 -47 -21 -45 -12 -100 -40 -78 -40 6 1 37 7 70 15 71 17 78 18
71 6 -4 -5 -25 -13 -49 -17 -32 -5 -38 -8 -22 -14 19 -7 19 -7 -2 -19 -12 -6
-42 -14 -67 -17 -49 -7 -156 3 -156 15 0 10 85 63 134 83 43 18 146 24 146 9z
m730 -46 c0 -19 -10 -30 -41 -46 l-41 -21 38 46 c21 25 40 46 41 46 2 0 3 -11
3 -25z m-2900 11 c0 -3 -4 -8 -10 -11 -5 -3 -10 -1 -10 4 0 6 5 11 10 11 6 0
10 -2 10 -4z m-615 -63 c14 -21 25 -46 25 -55 0 -16 -5 -15 -40 8 -39 26 -57
55 -45 74 12 20 35 9 60 -27z m1945 16 c88 -13 167 -39 149 -49 -25 -14 -255
-33 -326 -28 -65 5 -303 60 -327 76 -33 21 363 23 504 1z m870 0 c0 -16 -56
-69 -74 -69 -28 0 -17 37 17 59 35 23 57 27 57 10z m-1278 -63 c58 -18 74 -25
52 -25 -17 -1 -51 -4 -76 -7 -42 -6 -48 -4 -87 31 -50 46 -52 59 -6 40 19 -8
71 -26 117 -39z m-1591 2 c24 -14 53 -36 64 -48 l20 -23 -25 8 c-14 4 -40 14
-59 21 -70 29 -75 13 -6 -21 l70 -33 -48 -1 c-26 -1 -64 6 -84 14 -44 18 -143
93 -143 107 0 7 31 9 83 6 67 -3 93 -9 128 -30z m3579 -66 l0 -98 -61 -28
c-44 -20 -69 -40 -92 -72 -36 -51 -65 -57 -117 -21 -45 30 -47 41 -7 65 18 12
48 40 66 63 l34 42 69 -7 c37 -3 68 -4 68 -1 0 11 -69 35 -100 35 -34 0 -34
-1 -20 35 7 18 28 34 72 55 35 16 69 29 76 29 9 1 12 -25 12 -97z m-1183 -8
c29 -29 53 -58 53 -64 0 -6 -24 2 -52 18 -80 45 -170 71 -277 79 l-96 7 75 12
c41 7 93 16 115 21 60 14 119 -10 182 -73z m890 39 c4 -12 -35 -29 -44 -19 -8
8 18 37 30 33 6 -2 12 -8 14 -14z m-2696 -3 c20 -11 79 -106 79 -127 0 -8 -12
-13 -29 -13 -20 0 -44 14 -80 46 -28 25 -51 50 -51 55 0 13 38 49 51 49 6 0
19 -5 30 -10z m-272 -31 c53 -31 121 -90 115 -100 -6 -10 -20 -7 -146 27 -135
37 -141 40 -128 64 23 44 93 47 159 9z m-410 -29 c18 -9 21 -14 10 -21 -15 -9
-53 21 -71 56 -10 19 -10 19 13 -1 13 -12 35 -27 48 -34z m1826 41 c-6 -5 -41
-13 -80 -19 -54 -7 -74 -6 -89 4 -17 11 -14 13 25 17 90 8 153 7 144 -2z m375
-10 c36 -1 93 -8 125 -16 64 -17 175 -64 175 -74 0 -3 -64 -6 -142 -6 -79 0
-200 -7 -271 -14 -105 -12 -138 -13 -189 -2 -66 13 -142 41 -134 48 2 2 52 21
109 42 100 35 110 36 184 30 43 -4 107 -8 143 -8z m-596 -9 c15 -18 13 -19
-45 -36 -107 -30 -194 -84 -199 -126 -6 -41 0 -51 27 -48 33 4 43 34 17 52
-16 12 -14 16 26 45 59 43 200 87 229 72 12 -7 21 -15 21 -19 0 -4 -23 -22
-51 -40 -56 -37 -88 -92 -89 -154 l0 -36 -187 -4 c-104 -1 -227 -2 -275 0
l-87 3 34 31 c19 16 64 65 99 107 105 126 134 139 361 160 50 5 93 9 96 10 3
0 13 -7 23 -17z m1876 -1 c0 -5 -7 -12 -16 -15 -14 -5 -15 -4 -4 9 14 17 20
19 20 6z m-1700 -22 c-32 -14 -50 -17 -65 -11 -17 8 -14 11 25 20 72 16 89 12
40 -9z m-1111 -82 c1 -5 -7 -6 -16 -4 -10 3 -30 8 -45 11 -21 5 -28 12 -28 30
0 12 3 26 6 29 7 7 82 -53 83 -66z m-538 43 c-14 -12 -38 -20 -60 -20 -42 0
-52 6 -44 26 4 10 23 14 67 14 l61 -1 -24 -19z m1008 -42 c-106 -125 -177
-188 -209 -188 -17 0 -30 2 -30 5 0 3 15 26 34 53 40 55 52 93 38 119 -10 16
-1 21 86 44 142 39 142 39 81 -33z m-797 26 c51 -14 99 -28 107 -30 11 -4 6
-11 -15 -24 -16 -11 -36 -25 -45 -31 -10 -7 -27 -9 -44 -5 -34 9 -105 76 -105
100 0 20 -8 21 102 -10z m2993 -14 c-8 -16 -15 -38 -15 -49 0 -12 -11 -23 -31
-30 -42 -14 -42 -14 -29 10 12 22 79 99 86 99 3 0 -2 -13 -11 -30z m76 -11
c-24 -21 -46 -37 -48 -35 -11 11 11 47 35 61 51 27 57 14 13 -26z m-1591 -15
c93 -34 188 -36 378 -9 113 16 149 17 230 8 54 -6 113 -17 132 -25 l35 -15
-42 -12 c-191 -53 -509 -96 -855 -115 -86 -5 -88 -5 -88 18 0 15 -8 25 -25 32
l-25 9 20 42 c26 51 103 106 140 99 14 -3 59 -17 100 -32z m-956 -29 c-14 -19
-28 -35 -30 -35 -3 0 -9 12 -15 27 -12 31 0 43 44 43 l28 0 -27 -35z m-84 0
c5 -14 13 -38 16 -53 6 -25 4 -24 -38 18 l-46 45 27 6 c14 4 27 7 29 8 1 0 7
-10 12 -24z m2910 -10 c0 -6 -11 -17 -25 -23 -50 -23 -58 -11 -24 32 17 21 24
24 35 15 8 -6 14 -17 14 -24z m-2991 -9 c72 -50 109 -123 43 -85 -15 8 -54 30
-87 49 l-60 33 28 -30 c15 -16 24 -32 20 -36 -3 -4 -27 -7 -52 -8 -78 -1 -95
-17 -19 -18 102 -1 110 -9 47 -43 l-54 -29 45 6 c25 3 66 8 92 11 25 4 59 3
75 -1 l28 -7 -39 -34 c-52 -45 -125 -69 -212 -68 -74 1 -124 22 -124 51 0 8
-9 22 -20 31 -32 26 -35 79 -8 132 33 64 72 82 174 78 70 -3 86 -7 123 -32z
m241 19 c0 -24 -25 -67 -56 -95 l-27 -25 6 25 c4 14 7 30 7 37 0 15 49 73 61
73 5 0 9 -7 9 -15z m2666 -11 c-3 -9 -6 -24 -6 -34 0 -16 -43 -40 -71 -40 -19
0 -7 24 27 56 38 36 60 44 50 18z m-2206 -24 c0 -5 -4 -10 -10 -10 -5 0 -10 5
-10 10 0 6 5 10 10 10 6 0 10 -4 10 -10z m2364 -25 c22 -34 21 -65 -4 -65 -23
0 -40 28 -40 64 0 33 23 34 44 1z m-3414 -50 c0 -38 -10 -42 -55 -25 -31 12
-29 30 6 47 39 20 49 16 49 -22z m3333 -8 c-19 -85 -45 -115 -55 -63 -9 45 3
85 26 88 30 5 35 1 29 -25z m-2093 -8 c0 -5 -7 -9 -15 -9 -15 0 -20 12 -9 23
8 8 24 -1 24 -14z m-1230 -78 c0 -6 -5 -13 -11 -17 -6 -3 -9 -19 -6 -34 6 -26
4 -27 -55 -38 -34 -6 -63 -10 -65 -8 -2 2 9 18 24 36 42 50 113 88 113 61z
m571 -28 c14 -37 5 -57 -21 -43 -29 16 -46 50 -29 61 24 15 39 10 50 -18z
m-495 -60 c-8 -9 -76 27 -76 40 0 28 15 27 47 -5 18 -17 31 -33 29 -35z m1698
-21 c-51 -163 -363 -327 -714 -376 -153 -21 -287 -29 -295 -16 -3 5 2 13 12
16 10 3 65 23 123 45 118 43 235 74 325 84 193 21 357 109 495 265 72 81 83
77 54 -18z m-1353 31 c-5 -10 -26 -36 -46 -58 -35 -39 -35 -39 6 18 41 56 59
74 40 40z m1228 -40 c-45 -47 -200 -148 -266 -173 -28 -10 -102 -26 -165 -35
-145 -21 -170 -28 -307 -81 -158 -63 -178 -57 -78 23 162 130 308 192 509 219
131 17 209 36 281 68 29 13 54 21 56 19 3 -2 -11 -20 -30 -40z m-1279 31 c0
-17 -93 -132 -115 -142 -34 -16 -107 -15 -129 1 -26 19 -17 65 17 90 33 25
227 69 227 51z m-365 -24 c-16 -6 -12 -9 20 -12 l40 -4 -45 -22 c-49 -23 -103
-28 -145 -12 -36 14 -27 32 21 47 45 13 141 17 109 3z m118 -206 c11 -4 8 -12
-15 -34 -31 -32 -84 -46 -108 -30 -42 27 69 85 123 64z m77 -43 c0 -10 -9 -29
-19 -42 -16 -20 -23 -22 -38 -13 -41 25 -18 74 34 74 16 0 23 -6 23 -19z m-78
-72 c20 -11 20 -11 -4 -36 -26 -28 -73 -55 -81 -47 -9 9 4 37 31 67 30 31 27
30 54 16z m98 -28 c0 -39 -20 -68 -40 -56 -15 10 -12 62 6 79 25 25 34 19 34
-23z"/>
<path d="M4266 6837 c-318 -982 -422 -1292 -428 -1281 -14 24 -478 1555 -484
1595 -4 27 -1 62 5 82 14 40 68 93 106 103 16 4 25 13 25 25 0 18 -10 19 -176
19 l-176 0 7 33 c15 67 71 127 120 127 9 0 15 9 15 25 l0 25 -335 0 -335 0 0
-25 c0 -19 5 -25 22 -25 57 0 139 -95 182 -212 13 -35 216 -697 452 -1472
l429 -1409 34 112 c19 61 37 111 40 111 3 0 33 -89 65 -198 33 -108 62 -203
66 -210 3 -7 21 36 40 95 18 59 36 113 40 118 4 6 43 127 87 270 219 706 498
1585 504 1585 3 0 16 -35 28 -77 13 -43 64 -206 115 -363 51 -157 173 -540
272 -852 98 -313 182 -568 185 -568 3 0 18 43 34 95 15 53 31 98 35 100 4 2
36 -88 71 -200 35 -113 66 -205 69 -205 7 0 70 206 550 1795 171 567 317 1044
325 1060 7 17 20 47 29 67 24 60 103 132 159 146 36 10 47 17 47 32 0 19 -7
20 -210 20 -115 0 -210 3 -210 6 0 3 14 25 31 49 39 54 95 94 143 102 30 5 36
10 36 29 l0 24 -255 0 -255 0 0 -22 c0 -16 11 -28 33 -38 17 -8 42 -31 55 -50
43 -62 34 -96 -221 -915 -246 -784 -320 -1016 -324 -1012 -1 2 -99 313 -218
693 -118 379 -222 705 -230 724 -8 19 -40 118 -71 220 -31 102 -60 188 -63
192 -4 4 -22 -38 -40 -94 -21 -64 -36 -96 -41 -87 -4 8 -33 100 -65 204 -32
105 -61 193 -64 197 -3 3 -118 -341 -255 -765z m1800 442 c15 -17 19 -35 18
-98 -1 -70 -23 -146 -278 -959 -152 -486 -278 -887 -281 -892 -3 -4 -20 -56
-39 -115 l-33 -108 -21 62 -21 62 35 117 c146 495 590 1952 595 1952 3 0 14
-9 25 -21z m-1798 -1293 c-116 -358 -214 -655 -217 -661 -4 -5 -22 -58 -41
-117 l-34 -108 -18 57 -17 57 35 116 c52 167 444 1412 451 1430 3 9 15 -13 29
-54 l23 -68 -211 -652z"/>
<path d="M6562 7568 c2 -16 12 -24 33 -28 54 -11 73 -29 107 -97 l33 -68 0
-1335 c0 -1248 -1 -1338 -18 -1385 -24 -69 -69 -122 -118 -136 -27 -9 -39 -18
-39 -31 0 -17 12 -18 185 -18 121 0 185 -4 185 -10 0 -52 -77 -147 -126 -156
-23 -4 -34 -12 -34 -24 0 -37 922 -34 1175 5 185 28 336 75 488 151 282 142
484 327 642 588 222 367 271 865 129 1301 -36 110 -122 284 -187 380 -57 83
-310 353 -454 485 -244 223 -555 356 -908 390 -60 5 -332 10 -603 10 l-493 0
3 -22z m833 -148 c72 -6 155 -17 185 -24 51 -13 31 -14 -237 -15 -278 -1 -293
0 -293 17 0 10 3 22 7 25 10 10 190 8 338 -3z m334 -220 c223 -38 485 -151
654 -282 126 -98 262 -350 327 -608 59 -238 55 -551 -11 -765 -69 -226 -259
-485 -460 -627 -230 -163 -529 -263 -826 -275 l-143 -6 0 1254 c0 690 -3 1272
-7 1293 l-6 39 204 -6 c112 -4 233 -11 268 -17z m1088 -2077 c-230 -402 -631
-643 -1150 -692 -130 -13 -397 -3 -397 14 0 8 62 15 197 24 216 13 371 36 508
76 110 32 323 133 437 208 156 103 315 262 413 414 22 34 41 60 44 58 2 -2
-22 -48 -52 -102z"/>
</g>
</svg>
